<svg xmlns:osb="http://www.openswatchbook.org/uri/2009/osb" xmlns="http://www.w3.org/2000/svg" xmlns:xlink="http://www.w3.org/1999/xlink" width="99.213" height="99.213">
<metadata
     id="metadata829">
    <rdf:RDF>
      <cc:Work
         rdf:about="">
        <dc:format>image/svg+xml</dc:format>
        <dc:type
           rdf:resource="http://purl.org/dc/dcmitype/StillImage" />
        <dc:title></dc:title>
        <cc:license
           rdf:resource="http://creativecommons.org/licenses/by-sa/4.0/" />
        <dc:creator>
          <cc:Agent>
            <dc:title>ASTEE</dc:title>
          </cc:Agent>
        </dc:creator>
        <dc:contributor>
          <cc:Agent>
            <dc:title>ASTEE; Le Grand Lyon</dc:title>
          </cc:Agent>
        </dc:contributor>
        <dc:language>FR</dc:language>
        <dc:subject>
          <rdf:Bag>
            <rdf:li>eau</rdf:li>
            <rdf:li>potable</rdf:li>
            <rdf:li>assainissement</rdf:li>
          </rdf:Bag>
        </dc:subject>
        <dc:date></dc:date>
      </cc:Work>
      <cc:License
         rdf:about="http://creativecommons.org/licenses/by-sa/4.0/">
        <cc:permits
           rdf:resource="http://creativecommons.org/ns#Reproduction" />
        <cc:permits
           rdf:resource="http://creativecommons.org/ns#Distribution" />
        <cc:requires
           rdf:resource="http://creativecommons.org/ns#Notice" />
        <cc:requires
           rdf:resource="http://creativecommons.org/ns#Attribution" />
        <cc:permits
           rdf:resource="http://creativecommons.org/ns#DerivativeWorks" />
        <cc:requires
           rdf:resource="http://creativecommons.org/ns#ShareAlike" />
      </cc:License>
    </rdf:RDF>
  </metadata>
  
    <path stroke-miterlimit="10" stroke-width="param(outline-width) 1.757" fill="param(fill) #ffffff" fill-opacity="param(fill-opacity) 1"  stroke="param(outline) #000000"  stroke-linecap="square" d="M94.424 20.355l.821.206.686.205.683.34.479.274.414.479.203.479.137.617v53.302h0l-.137.549-.203.482-.414.408-.479.408-.683.342-.686.207-.821.205-.89.069H5.608h0l-.889-.069-.819-.205-.685-.207-.615-.342-.547-.408-.341-.408-.275-.482-.07-.549V22.955h0l.07-.617.275-.479.341-.479.547-.274.615-.34.685-.205.819-.206.889-.068h87.926z"/>
    <path stroke-miterlimit="10" fill="none" stroke="param(outline) #000000" stroke-width="param(outline-width) 3" stroke-linecap="square" d="M70.21 37.771l-1.119.256-1.215.26-1.033.43-1.039.521-.951.603-.864.607-.947.78-.693.86-.696.862-.597 1.041-.522 1.035-.439 1.035-.255 1.126-.169 1.21-.088 1.211h0l.088 1.202.169 1.3.255 1.037.439 1.124.522 1.035.597 1.037.696.863.693.863.947.772.864.614.951.603 1.039.52 1.033.431 1.215.26 1.119.169h2.422l1.211-.169 1.119-.26 1.117-.431 1.043-.52.953-.603.946-.614.776-.772.866-.863.686-.863.611-1.037.519-1.035.346-1.124.342-1.037.093-1.3.081-1.202h0l-.081-1.211-.093-1.21-.342-1.126-.346-1.035-.519-1.035-.611-1.041-.686-.862-.866-.86-.776-.78-.946-.607-.953-.603-1.043-.521-1.117-.43-1.119-.26-1.211-.256-1.217-.086z"/>
    <path stroke-miterlimit="10" fill="none" stroke="param(outline) #000000"  stroke-width="param(outline-width) 3" stroke-linecap="square" d="M26.496 37.854l-1.038.173-1.296.345-.949.434-1.128.432-.945.603-.863.607-.954.864-.691.776-.689.951-.605.952-.521 1.035-.43 1.122-.261 1.123-.085 1.211-.174 1.209h0l.174 1.208.085 1.211.261 1.123.43 1.12.521 1.037.605.953.689.951.691.775.954.862.863.613.945.6 1.128.434.949.431 1.296.345 1.038.174h2.417l1.295-.174 1.04-.345 1.122-.431 1.037-.434 1.04-.6.859-.613.866-.862.777-.775.689-.951.608-.953.513-1.037.435-1.12.261-1.123.08-1.211.178-1.208h0l-.178-1.209-.08-1.211-.261-1.123-.435-1.122-.513-1.035-.608-.952-.689-.951-.777-.776-.866-.864-.859-.607-1.04-.603-1.037-.432-1.122-.434-1.04-.345-1.295-.173-1.209-.083z"/>
</svg>
