<svg width="100" height="100" version="1.1" xmlns="http://www.w3.org/2000/svg">
  <path id="fond" d="m26.371.22615h49.328c13.292 0 24.072 10.776 24.072 24.07v49.326c0 13.289-10.78 24.069-24.072 24.069h-49.328c-13.294 0-24.07-10.78-24.07-24.069v-49.326c0-13.294 10.776-24.07 24.07-24.07z" fill="param(fill) #FFFFFF" fill-opacity="param(fill-opacity) 1"/>
  <path d="m26.371.22615c-14.448 0-26.146 11.699-26.146 26.147v47.256c0 14.449 11.698 26.145 26.146 26.145h47.259c14.447 0 26.145-11.695 26.145-26.145v-47.256c0-14.449-11.696-26.147-26.145-26.147zm0 6.221h47.259c12.22 0 19.923 7.7018 19.923 19.925v47.255c0 12.223-7.703 19.928-19.923 19.928h-47.259c-12.222 0-19.926-7.705-19.926-19.928v-47.255c0-12.222 7.7025-19.925 19.926-19.925z"/>
  <path d="m13.957 35.94v38.294l.527.965a5.573 5.573 0 002.604 2.365c.654.29 2.712.312 32.821.312h32.131l.944-.437c1.187-.53 2.261-1.658 2.716-2.86.328-.855.343-1.748.343-25.958v-25.069l-.379-.51c-.51-.69-1.24-1.018-1.985-.892-.439.09-2.512 1.803-8.393 6.937l-7.809 6.844-.09-6.408-.09-6.39-.51-.417c-.676-.583-1.587-.746-2.241-.383-.293.145-3.935 3.258-8.084 6.9l-7.556 6.626-.09-6.207c-.07-5.08-.147-6.281-.365-6.627-.382-.583-1.383-1.002-2.058-.875-.418.07-2.693 1.967-8.409 6.955l-7.826 6.862-.21-12.693c-.565-1.073-1.13-1.083-2.286-1.083.218-.803-13.705 13.75-13.705 13.75zm25.576 21v7.007l-4.679-.04-4.698-.05-.05-6.736c-.02-3.696 0-6.844.05-6.954.05-.181 1.166-.238 4.733-.238h4.643v7.012zm18.568 0v7.007h-9.284v-14.018h9.283v7.012zm18.568 0v7.007h-9.285v-14.018h9.284v7.012z" fill="param(outline) #000;"/>
</svg>
