<?xml version="1.0" encoding="UTF-8"?>
<svg width="99" height="99" inkscape:version="0.92.3 (2405546, 2018-03-11)" sodipodi:docname="AEP_RESERVOIR.min.svg" version="1.1" xmlns="http://www.w3.org/2000/svg" xmlns:cc="http://creativecommons.org/ns#" xmlns:dc="http://purl.org/dc/elements/1.1/" xmlns:inkscape="http://www.inkscape.org/namespaces/inkscape" xmlns:rdf="http://www.w3.org/1999/02/22-rdf-syntax-ns#" xmlns:sodipodi="http://sodipodi.sourceforge.net/DTD/sodipodi-0.dtd">
<metadata
     id="metadata829">
    <rdf:RDF>
      <cc:Work
         rdf:about="">
        <dc:format>image/svg+xml</dc:format>
        <dc:type
           rdf:resource="http://purl.org/dc/dcmitype/StillImage" />
        <dc:title></dc:title>
        <cc:license
           rdf:resource="http://creativecommons.org/licenses/by-sa/4.0/" />
        <dc:creator>
          <cc:Agent>
            <dc:title>ASTEE</dc:title>
          </cc:Agent>
        </dc:creator>
        <dc:contributor>
          <cc:Agent>
            <dc:title>ASTEE; Le Grand Lyon</dc:title>
          </cc:Agent>
        </dc:contributor>
        <dc:language>FR</dc:language>
        <dc:subject>
          <rdf:Bag>
            <rdf:li>eau</rdf:li>
            <rdf:li>potable</rdf:li>
            <rdf:li>assainissement</rdf:li>
          </rdf:Bag>
        </dc:subject>
        <dc:date></dc:date>
      </cc:Work>
      <cc:License
         rdf:about="http://creativecommons.org/licenses/by-sa/4.0/">
        <cc:permits
           rdf:resource="http://creativecommons.org/ns#Reproduction" />
        <cc:permits
           rdf:resource="http://creativecommons.org/ns#Distribution" />
        <cc:requires
           rdf:resource="http://creativecommons.org/ns#Notice" />
        <cc:requires
           rdf:resource="http://creativecommons.org/ns#Attribution" />
        <cc:permits
           rdf:resource="http://creativecommons.org/ns#DerivativeWorks" />
        <cc:requires
           rdf:resource="http://creativecommons.org/ns#ShareAlike" />
      </cc:License>
    </rdf:RDF>
  </metadata>
   <sodipodi:namedview bordercolor="#666666" borderopacity="1" gridtolerance="10" guidetolerance="10" inkscape:current-layer="svg916" inkscape:cx="107.99492" inkscape:cy="50.096627" inkscape:pageopacity="0" inkscape:pageshadow="2" inkscape:window-height="1370" inkscape:window-maximized="1" inkscape:window-width="2560" inkscape:window-x="0" inkscape:window-y="42" inkscape:zoom="6.0123171" objecttolerance="10" pagecolor="#ffffff" showgrid="false"/>
 <path d="m50 5a47 16 0 0 0-47 16 47 16 0 0 0 0.02 0.2h-0.02c0.05 47-0.06 35 0.05 49-0.4 30 95 32 95 0.4 0.1-16 0.07-49 0.07-49v-0.2h-0.02a47 16 0 0 0-47-16z" fill="param(fill) #fff" fill-opacity="param(fill-opacity) 1"  inkscape:connector-curvature="0"/>
 <path d="m97 44c6e-3 4 0 0 0 29-0.5 9-12 16-27 19-22 4-55 1-64-12-3-4-4-6-4-12-0.04-30 0.1-27 0.1-23 2e-3 14 23 20 46 20 24-0.08 48-7 48-21z" fill="param(outline) #000"/>
 <g  stroke="param(outline) #000000" stroke-miterlimit="8" stroke-width="3">
  <path fill="none" d="m50 5c-26 0-47 7-47 16 5e-3 0.06 0.01 0.1 0.02 0.2-0.02 20-6e-3 44 0.03 49-0.4 30 95 32 95 0.4 0.1-16 0.1-48 0.07-49 0.02-0.5 0.01 2-5e-3 -0.2-0.3-9-21-16-47-16z"/>
  <ellipse fill="none" cx="49" cy="22" rx="47" ry="16"/>
 </g>
</svg>
