<svg xmlns="http://www.w3.org/2000/svg" width="99.213" height="88" viewBox="0 6.219 99.213 88">
<metadata
     id="metadata829">
    <rdf:RDF>
      <cc:Work
         rdf:about="">
        <dc:format>image/svg+xml</dc:format>
        <dc:type
           rdf:resource="http://purl.org/dc/dcmitype/StillImage" />
        <dc:title></dc:title>
        <cc:license
           rdf:resource="http://creativecommons.org/licenses/by-sa/4.0/" />
        <dc:creator>
          <cc:Agent>
            <dc:title>ASTEE</dc:title>
          </cc:Agent>
        </dc:creator>
        <dc:contributor>
          <cc:Agent>
            <dc:title>ASTEE; Le Grand Lyon</dc:title>
          </cc:Agent>
        </dc:contributor>
        <dc:language>FR</dc:language>
        <dc:subject>
          <rdf:Bag>
            <rdf:li>eau</rdf:li>
            <rdf:li>potable</rdf:li>
            <rdf:li>assainissement</rdf:li>
          </rdf:Bag>
        </dc:subject>
        <dc:date></dc:date>
      </cc:Work>
      <cc:License
         rdf:about="http://creativecommons.org/licenses/by-sa/4.0/">
        <cc:permits
           rdf:resource="http://creativecommons.org/ns#Reproduction" />
        <cc:permits
           rdf:resource="http://creativecommons.org/ns#Distribution" />
        <cc:requires
           rdf:resource="http://creativecommons.org/ns#Notice" />
        <cc:requires
           rdf:resource="http://creativecommons.org/ns#Attribution" />
        <cc:permits
           rdf:resource="http://creativecommons.org/ns#DerivativeWorks" />
        <cc:requires
           rdf:resource="http://creativecommons.org/ns#ShareAlike" />
      </cc:License>
    </rdf:RDF>
  </metadata>
  
    <path fill="param(fill) #FFFFFF" fill-opacity="param(fill-opacity) 1" stroke="param(outline) #000000" stroke-width="param(outline-width) 1" stroke-miterlimit="10" d="M25.856 91.332L2.212 50.38 25.856 9.427h47.288L96.787 50.38 73.144 91.332z"/>
    <path fill="param(outline) #000000" d="M47.896 26.833c7.871-.376 14.969 1.522 20.414 3.92 2.666 1.175 4.692 2.313 7.703 4.46 2.022 1.444 5.584 3.881 5.947 6.083.488 2.938-1.611 4.814-3.785 4.868-2.423.062-4.316-2.584-6.082-3.921-5.761-4.361-12.996-7.519-22.442-7.569-8.98-.049-16.92 3.201-22.573 7.434-2.189 1.64-3.724 3.942-5.814 4.057-2.498.136-4.292-1.863-4.326-3.921-.046-2.722 3.657-5.117 5.272-6.354 4.594-3.515 9.156-5.852 15.409-7.569 3.141-.864 6.395-1.303 10.277-1.488z"/>
    <path fill="param(outline) #000000" d="M46.948 40.216c8.691-.681 16.338 2.186 21.629 6.084 1.844 1.356 4.465 3.375 4.597 5.541.163 2.67-1.926 4.498-4.327 4.191-2.728-.35-4.005-2.756-5.945-4.056-3.687-2.464-8.772-4.374-15.545-3.921-5.654.381-9.747 2.735-13.114 5.542-1.654 1.378-2.569 2.769-5.137 2.434-1.806-.236-3.25-1.559-3.246-3.921.008-2.55 2.667-4.391 4.597-5.812 4.158-3.062 9.602-5.545 16.491-6.082z"/>
    <path fill="param(outline) #000000" d="M48.434 53.463c5.213-.385 10.301 1.694 13.383 4.462 1.102.985 2.203 2.173 2.435 3.378.579 3.007-1.966 5.103-4.597 4.732-1.797-.254-3.217-2.404-4.596-3.245-2.6-1.585-7.072-1.952-10.273-.407-2.839 1.372-3.336 4.083-6.759 3.652-2.178-.276-3.732-2.266-3.244-4.732.496-2.5 3.153-4.192 5.273-5.406 2.607-1.495 4.979-2.182 8.378-2.434zM49.247 67.252c2.873-.188 5.736 2.225 5.001 5.813-.417 2.038-2.647 4.229-5.814 3.649-3.729-.683-4.672-5.725-2.43-8.11.783-.835 1.752-1.254 3.243-1.352z"/>
</svg>
