<?xml version="1.0" encoding="UTF-8" standalone="no"?>
<svg xmlns:dc="http://purl.org/dc/elements/1.1/" xmlns:cc="http://creativecommons.org/ns#" xmlns:rdf="http://www.w3.org/1999/02/22-rdf-syntax-ns#" xmlns:svg="http://www.w3.org/2000/svg" xmlns="http://www.w3.org/2000/svg" xmlns:sodipodi="http://sodipodi.sourceforge.net/DTD/sodipodi-0.dtd" xmlns:inkscape="http://www.inkscape.org/namespaces/inkscape" width="792.031" height="722.305" version="1.1" id="svg11" sodipodi:docname="EAU_PLUVIOMETRE.min.svg" inkscape:version="0.92.3 (2405546, 2018-03-11)">
<metadata
     id="metadata829">
    <rdf:RDF>
      <cc:Work
         rdf:about="">
        <dc:format>image/svg+xml</dc:format>
        <dc:type
           rdf:resource="http://purl.org/dc/dcmitype/StillImage" />
        <dc:title></dc:title>
        <cc:license
           rdf:resource="http://creativecommons.org/licenses/by-sa/4.0/" />
        <dc:creator>
          <cc:Agent>
            <dc:title>ASTEE</dc:title>
          </cc:Agent>
        </dc:creator>
        <dc:contributor>
          <cc:Agent>
            <dc:title>ASTEE; Le Grand Lyon</dc:title>
          </cc:Agent>
        </dc:contributor>
        <dc:language>FR</dc:language>
        <dc:subject>
          <rdf:Bag>
            <rdf:li>eau</rdf:li>
            <rdf:li>potable</rdf:li>
            <rdf:li>assainissement</rdf:li>
          </rdf:Bag>
        </dc:subject>
        <dc:date></dc:date>
      </cc:Work>
      <cc:License
         rdf:about="http://creativecommons.org/licenses/by-sa/4.0/">
        <cc:permits
           rdf:resource="http://creativecommons.org/ns#Reproduction" />
        <cc:permits
           rdf:resource="http://creativecommons.org/ns#Distribution" />
        <cc:requires
           rdf:resource="http://creativecommons.org/ns#Notice" />
        <cc:requires
           rdf:resource="http://creativecommons.org/ns#Attribution" />
        <cc:permits
           rdf:resource="http://creativecommons.org/ns#DerivativeWorks" />
        <cc:requires
           rdf:resource="http://creativecommons.org/ns#ShareAlike" />
      </cc:License>
    </rdf:RDF>
  </metadata>
    <sodipodi:namedview pagecolor="#ffffff" bordercolor="#666666" borderopacity="1" objecttolerance="10" gridtolerance="10" guidetolerance="10" inkscape:pageopacity="0" inkscape:pageshadow="2" inkscape:window-width="2560" inkscape:window-height="1370" id="namedview13" showgrid="false" inkscape:zoom="0.46206852" inkscape:cx="632.15828" inkscape:cy="-204.33027" inkscape:window-x="0" inkscape:window-y="42" inkscape:window-maximized="1" inkscape:current-layer="svg11"/>
  <defs id="defs5">
    <pattern patternTransform="matrix(2.16 0 0 2.16 119.74 -21.796)" patternUnits="userSpaceOnUse" x="0" y="0" width="109.125" height="25.803" id="prefix__a">
      <path d="M109.125 6.712c-6.175 0-10.819 1.305-13.641 2.128-2.82.823-7.466 2.128-13.64 2.128S71.024 9.663 68.203 8.84c-2.821-.824-7.466-2.128-13.641-2.128-6.174 0-10.819 1.305-13.64 2.128-2.821.823-7.467 2.128-13.641 2.128s-10.82-1.305-13.64-2.128C10.819 8.017 6.174 6.712 0 6.712M109.125-1.89c-6.175 0-10.819 1.305-13.641 2.128-2.82.823-7.466 2.128-13.64 2.128S71.024 1.061 68.203.238C65.382-.585 60.737-1.89 54.562-1.89c-6.174 0-10.819 1.305-13.64 2.128-2.821.823-7.467 2.128-13.641 2.128S16.461 1.061 13.641.238C10.819-.585 6.174-1.89 0-1.89M109.125 23.915c-6.175 0-10.819 1.305-13.641 2.128-2.82.823-7.466 2.128-13.64 2.128s-10.82-1.305-13.641-2.128c-2.821-.824-7.466-2.128-13.641-2.128-6.174 0-10.819 1.305-13.64 2.128-2.821.823-7.467 2.128-13.641 2.128s-10.82-1.305-13.64-2.128C10.819 25.22 6.174 23.915 0 23.915M109.125 15.313c-6.175 0-10.819 1.305-13.641 2.128-2.82.823-7.466 2.128-13.64 2.128s-10.82-1.305-13.641-2.128c-2.821-.823-7.466-2.128-13.641-2.128-6.174 0-10.819 1.305-13.64 2.128-2.821.823-7.467 2.128-13.641 2.128s-10.82-1.305-13.64-2.128C10.819 16.618 6.174 15.313 0 15.313"  
      fill="none" stroke="#000" stroke-width="3" stroke-linecap="square" id="path2"/>
    </pattern>
  </defs>
  <path d="M151.696 6.816L397.573 495.5 640.335 6.816h-488.64z" id="path7" style="fill:param(outline) #000;fill-opacity:param(outline-opacity) 1"/>
  <path d="M397.574 348.434V704.66M533.132 704.66H258.871" fill="none" stroke="param(outline) #000" stroke-width="21.65784" id="path9"/>
</svg>
