<?xml version="1.0" encoding="UTF-8"?>
<svg width="110mm" height="110mm" version="1.1" viewBox="0 0 110 110" xmlns="http://www.w3.org/2000/svg" xmlns:cc="http://creativecommons.org/ns#" xmlns:dc="http://purl.org/dc/elements/1.1/" xmlns:rdf="http://www.w3.org/1999/02/22-rdf-syntax-ns#">
<metadata
     id="metadata829">
    <rdf:RDF>
      <cc:Work
         rdf:about="">
        <dc:format>image/svg+xml</dc:format>
        <dc:type
           rdf:resource="http://purl.org/dc/dcmitype/StillImage" />
        <dc:title></dc:title>
        <cc:license
           rdf:resource="http://creativecommons.org/licenses/by-sa/4.0/" />
        <dc:creator>
          <cc:Agent>
            <dc:title>ASTEE</dc:title>
          </cc:Agent>
        </dc:creator>
        <dc:contributor>
          <cc:Agent>
            <dc:title>ASTEE; Le Grand Lyon</dc:title>
          </cc:Agent>
        </dc:contributor>
        <dc:language>FR</dc:language>
        <dc:subject>
          <rdf:Bag>
            <rdf:li>eau</rdf:li>
            <rdf:li>potable</rdf:li>
            <rdf:li>assainissement</rdf:li>
          </rdf:Bag>
        </dc:subject>
        <dc:date></dc:date>
      </cc:Work>
      <cc:License
         rdf:about="http://creativecommons.org/licenses/by-sa/4.0/">
        <cc:permits
           rdf:resource="http://creativecommons.org/ns#Reproduction" />
        <cc:permits
           rdf:resource="http://creativecommons.org/ns#Distribution" />
        <cc:requires
           rdf:resource="http://creativecommons.org/ns#Notice" />
        <cc:requires
           rdf:resource="http://creativecommons.org/ns#Attribution" />
        <cc:permits
           rdf:resource="http://creativecommons.org/ns#DerivativeWorks" />
        <cc:requires
           rdf:resource="http://creativecommons.org/ns#ShareAlike" />
      </cc:License>
    </rdf:RDF>
  </metadata>
  <path transform="scale(.26458)" d="m152.02 37v0.001953c-1.8856 0.011339-3.6545 0.90887-3.6152 2.5703l-0.0039 106.53c-0.12639 2.1615 3.0733 2.7672 5.4766 1.7637l131.5-54.527c1.4152-0.515 2.021-1.1536 0-1.8066l-131.5-54.244c-0.59195-0.19918-1.2328-0.29442-1.8613-0.29102zm-0.03125 285.37a27.197 27.197 0 0 0-27.195 27.197 27.197 27.197 0 0 0 27.195 27.195 27.197 27.197 0 0 0 27.197-27.195 27.197 27.197 0 0 0-27.197-27.197z" fill="#fff"/>
<path d="m39.156 39.53v44.949m1.0568 0.81398a7.1958 7.1958 0 0 0-7.1958 7.1958 7.1958 7.1958 0 0 0 7.1958 7.1958 7.1958 7.1958 0 0 0 7.1958-7.1958 7.1958 7.1958 0 0 0-7.1958-7.1958zm-0.0274-75.426c-0.49889 0.0026-0.9664 0.24098-0.956 0.68058l-1e-3 28.186c-0.0334 0.57189 0.81313 0.73214 1.449 0.46664l34.792-14.427c0.37443-0.13626 0.53471-0.30522 0-0.47799l-34.792-14.351c-0.15662-0.05271-0.3267-0.07788-0.49299-0.077zm1.0872 29.663v44.949"  fill="param(fill) #fff" fill-opacity="param(fill-opacity) 1"   stroke="param(outline) #000" stroke-linecap="square" stroke-width="3.75" style="paint-order:stroke markers fill" inkscape:flatsided="true" inkscape:randomized="0" inkscape:rounded="3.46945e-18" inkscape:transform-center-x="-43.48484" sodipodi:arg1="-2.0943951" sodipodi:arg2="-1.0471976" sodipodi:cx="459.08255" sodipodi:cy="192.7692" sodipodi:r1="173.93936" sodipodi:r2="86.969681" sodipodi:sides="3" sodipodi:type="star"/>
</svg>
