<?xml version="1.0" encoding="UTF-8"?>
<svg id="svg9" width="100" height="100" version="1.1" xmlns="http://www.w3.org/2000/svg" xmlns:cc="http://creativecommons.org/ns#" xmlns:dc="http://purl.org/dc/elements/1.1/" xmlns:rdf="http://www.w3.org/1999/02/22-rdf-syntax-ns#">
 <metadata id="metadata829">
  <rdf:RDF>
   <cc:Work rdf:about="">
    <dc:format>image/svg+xml</dc:format>
    <dc:type rdf:resource="http://purl.org/dc/dcmitype/StillImage"/>
    <cc:license rdf:resource="http://creativecommons.org/licenses/by-sa/4.0/"/>
    <dc:creator>
     <cc:Agent>
      <dc:title>ASTEE</dc:title>
     </cc:Agent>
    </dc:creator>
    <dc:contributor>
     <cc:Agent>
      <dc:title>ASTEE; Le Grand Lyon</dc:title>
     </cc:Agent>
    </dc:contributor>
    <dc:language>FR</dc:language>
    <dc:subject>
     <rdf:Bag>
      <rdf:li>eau</rdf:li>
      <rdf:li>potable</rdf:li>
      <rdf:li>assainissement</rdf:li>
     </rdf:Bag>
    </dc:subject>
    <dc:date/>
   </cc:Work>
   <cc:License rdf:about="http://creativecommons.org/licenses/by-sa/4.0/">
    <cc:permits rdf:resource="http://creativecommons.org/ns#Reproduction"/>
    <cc:permits rdf:resource="http://creativecommons.org/ns#Distribution"/>
    <cc:requires rdf:resource="http://creativecommons.org/ns#Notice"/>
    <cc:requires rdf:resource="http://creativecommons.org/ns#Attribution"/>
    <cc:permits rdf:resource="http://creativecommons.org/ns#DerivativeWorks"/>
    <cc:requires rdf:resource="http://creativecommons.org/ns#ShareAlike"/>
   </cc:License>
  </rdf:RDF>
 </metadata>
 <g id="g833" transform="translate(.3935 .393)">
  <path id="path3" d="m1.507 49.608c0-25.718 21.534-46.572 48.098-46.572 26.569 0 48.101 20.854 48.101 46.572 0 25.719-21.532 46.57-48.101 46.57-26.563 0-48.098-20.853-48.098-46.57z" fill="#fff" stroke="#000" stroke-miterlimit="8" stroke-width="4"/>
  <path id="path5" d="m18.328 49.57c0-16.726 14.001-30.286 31.277-30.286s31.28 13.56 31.28 30.286c0 16.729-14.004 30.285-31.28 30.285-17.275-1e-3 -31.277-13.562-31.277-30.285z" fill="none" stroke="#000" stroke-miterlimit="8" stroke-width="3"/>
  <path id="path7" d="m35.95 27.268c0.142-1.667 0.666-1.886 2.099-1.23l38.617 22.02c0.99 0.436 1.54 1.432 0.265 2.172l-17.874 10.475-21.359 12.51c-1.156 0.704-1.802-0.344-1.537-1.427z"/>
 </g>
</svg>
