<?xml version="1.0" encoding="UTF-8"?>
<svg id="svg15" width="100" height="100" version="1.1" xmlns="http://www.w3.org/2000/svg" xmlns:cc="http://creativecommons.org/ns#" xmlns:dc="http://purl.org/dc/elements/1.1/" xmlns:rdf="http://www.w3.org/1999/02/22-rdf-syntax-ns#">
 <metadata id="metadata829">
  <rdf:RDF>
   <cc:Work rdf:about="">
    <dc:format>image/svg+xml</dc:format>
    <dc:type rdf:resource="http://purl.org/dc/dcmitype/StillImage"/>
    <cc:license rdf:resource="http://creativecommons.org/licenses/by-sa/4.0/"/>
    <dc:creator>
     <cc:Agent>
      <dc:title>ASTEE</dc:title>
     </cc:Agent>
    </dc:creator>
    <dc:contributor>
     <cc:Agent>
      <dc:title>ASTEE; Le Grand Lyon</dc:title>
     </cc:Agent>
    </dc:contributor>
    <dc:language>FR</dc:language>
    <dc:subject>
     <rdf:Bag>
      <rdf:li>eau</rdf:li>
      <rdf:li>potable</rdf:li>
      <rdf:li>assainissement</rdf:li>
     </rdf:Bag>
    </dc:subject>
    <dc:date/>
   </cc:Work>
   <cc:License rdf:about="http://creativecommons.org/licenses/by-sa/4.0/">
    <cc:permits rdf:resource="http://creativecommons.org/ns#Reproduction"/>
    <cc:permits rdf:resource="http://creativecommons.org/ns#Distribution"/>
    <cc:requires rdf:resource="http://creativecommons.org/ns#Notice"/>
    <cc:requires rdf:resource="http://creativecommons.org/ns#Attribution"/>
    <cc:permits rdf:resource="http://creativecommons.org/ns#DerivativeWorks"/>
    <cc:requires rdf:resource="http://creativecommons.org/ns#ShareAlike"/>
   </cc:License>
  </rdf:RDF>
 </metadata>
 <g id="g1340" transform="translate(-.0001884 -.10656)" stroke="#000">
  <path id="path9" d="m49.451 5.9426c-26 0-47 7.0004-47 16v49.2c-0.4 30.007 95 32.007 95 0.4 0.1-16 0.1-48 0.1-49v-0.2c-0.3-9-20.875-16.375-46.875-16.375z" fill="#fff" stroke-miterlimit="8" stroke-width="3"/>
  <path id="path7" d="m97.503 44.073v29c-0.5 9-12 16-27 19-22 4-55 1-63.999-12-3-4-4-6-4-12-0.04-30 0.1-27 0.1-23 0 14 22.999 20 45.999 20 24-0.08 48-7 48-21z"/>
  <ellipse id="ellipse11" cx="50" cy="21.756" rx="47" ry="16" fill="none" stroke-miterlimit="8" stroke-width="3"/>
 </g>
</svg>
