<?xml version="1.0" encoding="UTF-8"?>
<svg id="svg13" width="100" height="100" version="1.1" xmlns="http://www.w3.org/2000/svg" xmlns:cc="http://creativecommons.org/ns#" xmlns:dc="http://purl.org/dc/elements/1.1/" xmlns:rdf="http://www.w3.org/1999/02/22-rdf-syntax-ns#">
 <metadata id="metadata829">
  <rdf:RDF>
   <cc:Work rdf:about="">
    <dc:format>image/svg+xml</dc:format>
    <dc:type rdf:resource="http://purl.org/dc/dcmitype/StillImage"/>
    <cc:license rdf:resource="http://creativecommons.org/licenses/by-sa/4.0/"/>
    <dc:creator>
     <cc:Agent>
      <dc:title>ASTEE</dc:title>
     </cc:Agent>
    </dc:creator>
    <dc:contributor>
     <cc:Agent>
      <dc:title>ASTEE; Le Grand Lyon</dc:title>
     </cc:Agent>
    </dc:contributor>
    <dc:language>FR</dc:language>
    <dc:subject>
     <rdf:Bag>
      <rdf:li>eau</rdf:li>
      <rdf:li>potable</rdf:li>
      <rdf:li>assainissement</rdf:li>
     </rdf:Bag>
    </dc:subject>
    <dc:date/>
   </cc:Work>
   <cc:License rdf:about="http://creativecommons.org/licenses/by-sa/4.0/">
    <cc:permits rdf:resource="http://creativecommons.org/ns#Reproduction"/>
    <cc:permits rdf:resource="http://creativecommons.org/ns#Distribution"/>
    <cc:requires rdf:resource="http://creativecommons.org/ns#Notice"/>
    <cc:requires rdf:resource="http://creativecommons.org/ns#Attribution"/>
    <cc:permits rdf:resource="http://creativecommons.org/ns#DerivativeWorks"/>
    <cc:requires rdf:resource="http://creativecommons.org/ns#ShareAlike"/>
   </cc:License>
  </rdf:RDF>
 </metadata>
 <!-- fleche -->
 <g id="g875" transform="translate(.394 .3935)" stroke="#000" stroke-miterlimit="6.8" stroke-width="3">
  <path id="path3" d="m24.606 92.908-25-43.302 25-43.301h50l25 43.301-25 43.302z" fill="#fff"/>
  <path id="path5" d="m19.329 48.895c0-16.162 13.535-29.265 30.228-29.265 16.695 0 30.229 13.104 30.229 29.265 0 16.165-13.533 29.267-30.229 29.267-16.694 1e-3 -30.228-13.102-30.228-29.267z" fill="#fff"/>
  <path id="path7" d="m19.329 48.895c0-16.162 13.535-29.265 30.228-29.265 16.695 0 30.229 13.104 30.229 29.265 0 16.165-13.533 29.267-30.229 29.267-16.694 1e-3 -30.228-13.102-30.228-29.267z" fill="#fff"/>
  <path id="path9" d="m17.834 79.583 58.82-53.922" fill="none"/>
  <path id="path11" d="m69.819 43.05 11.56-21.487-22.385 9.676z"/>
 </g>
</svg>
