<?xml version="1.0" encoding="UTF-8"?>
<svg id="svg7" width="100" height="100" version="1.1" xmlns="http://www.w3.org/2000/svg" xmlns:cc="http://creativecommons.org/ns#" xmlns:dc="http://purl.org/dc/elements/1.1/" xmlns:rdf="http://www.w3.org/1999/02/22-rdf-syntax-ns#">
 <metadata id="metadata829">
  <rdf:RDF>
   <cc:Work rdf:about="">
    <dc:format>image/svg+xml</dc:format>
    <dc:type rdf:resource="http://purl.org/dc/dcmitype/StillImage"/>
    <cc:license rdf:resource="http://creativecommons.org/licenses/by-sa/4.0/"/>
    <dc:creator>
     <cc:Agent>
      <dc:title>ASTEE</dc:title>
     </cc:Agent>
    </dc:creator>
    <dc:contributor>
     <cc:Agent>
      <dc:title>ASTEE; Le Grand Lyon</dc:title>
     </cc:Agent>
    </dc:contributor>
    <dc:language>FR</dc:language>
    <dc:subject>
     <rdf:Bag>
      <rdf:li>eau</rdf:li>
      <rdf:li>potable</rdf:li>
      <rdf:li>assainissement</rdf:li>
     </rdf:Bag>
    </dc:subject>
    <dc:date/>
   </cc:Work>
   <cc:License rdf:about="http://creativecommons.org/licenses/by-sa/4.0/">
    <cc:permits rdf:resource="http://creativecommons.org/ns#Reproduction"/>
    <cc:permits rdf:resource="http://creativecommons.org/ns#Distribution"/>
    <cc:requires rdf:resource="http://creativecommons.org/ns#Notice"/>
    <cc:requires rdf:resource="http://creativecommons.org/ns#Attribution"/>
    <cc:permits rdf:resource="http://creativecommons.org/ns#DerivativeWorks"/>
    <cc:requires rdf:resource="http://creativecommons.org/ns#ShareAlike"/>
   </cc:License>
  </rdf:RDF>
 </metadata>
 <path id="path3" d="m52.173 96.802v0l-0.486 0.407-0.523 0.285-0.577 0.159-0.567 0.08-0.61-0.04-0.569-0.162-0.53-0.287-0.491-0.398-44.662-44.667v0l-0.406-0.49-0.284-0.528-0.163-0.568-0.04-0.609 0.08-0.572 0.162-0.566 0.285-0.53 0.366-0.532 44.624-44.622v0l0.529-0.366 0.53-0.283 0.568-0.164 0.569-0.082 0.608 0.04 0.577 0.164 0.523 0.285 0.486 0.406 44.665 44.662v0l0.41 0.492 0.281 0.53 0.166 0.566 0.04 0.611-0.08 0.57-0.16 0.568-0.285 0.528-0.409 0.49z" fill="#fff" stroke="#000" stroke-linecap="square" stroke-miterlimit="10" stroke-width="3"/>
 <path id="path5" d="m21.423 60.299h57.067l-28.42 29.34z" stroke="#000"/>
</svg>
