<?xml version="1.0" encoding="UTF-8"?>
<svg id="svg8" width="100" height="100" version="1.1" xmlns="http://www.w3.org/2000/svg" xmlns:cc="http://creativecommons.org/ns#" xmlns:dc="http://purl.org/dc/elements/1.1/" xmlns:rdf="http://www.w3.org/1999/02/22-rdf-syntax-ns#">
 <metadata id="metadata829">
  <rdf:RDF>
   <cc:Work rdf:about="">
    <dc:format>image/svg+xml</dc:format>
    <dc:type rdf:resource="http://purl.org/dc/dcmitype/StillImage"/>
    <cc:license rdf:resource="http://creativecommons.org/licenses/by-sa/4.0/"/>
    <dc:creator>
     <cc:Agent>
      <dc:title>ASTEE</dc:title>
     </cc:Agent>
    </dc:creator>
    <dc:contributor>
     <cc:Agent>
      <dc:title>ASTEE; Le Grand Lyon</dc:title>
     </cc:Agent>
    </dc:contributor>
    <dc:language>FR</dc:language>
    <dc:subject>
     <rdf:Bag>
      <rdf:li>eau</rdf:li>
      <rdf:li>potable</rdf:li>
      <rdf:li>assainissement</rdf:li>
     </rdf:Bag>
    </dc:subject>
    <dc:date/>
   </cc:Work>
   <cc:License rdf:about="http://creativecommons.org/licenses/by-sa/4.0/">
    <cc:permits rdf:resource="http://creativecommons.org/ns#Reproduction"/>
    <cc:permits rdf:resource="http://creativecommons.org/ns#Distribution"/>
    <cc:requires rdf:resource="http://creativecommons.org/ns#Notice"/>
    <cc:requires rdf:resource="http://creativecommons.org/ns#Attribution"/>
    <cc:permits rdf:resource="http://creativecommons.org/ns#DerivativeWorks"/>
    <cc:requires rdf:resource="http://creativecommons.org/ns#ShareAlike"/>
   </cc:License>
  </rdf:RDF>
 </metadata>
 <g id="layer1">
  <g id="g849" transform="translate(.3925 .3935)">
   <path id="path2" d="m24.943 0.877h49.328c13.293 0 24.068 10.777 24.068 24.071v49.326c0 13.293-10.775 24.068-24.068 24.068h-49.328c-13.294 0-24.07-10.775-24.07-24.068v-49.326c1e-3 -13.294 10.776-24.071 24.07-24.071z" fill="#fff" stroke="#FFF" stroke-width=".265"/>
   <path id="path4" d="m25.979-0.168c-14.448 0-26.147 11.699-26.147 26.147v47.256c0 14.449 11.699 26.146 26.147 26.146h47.258c14.447 0 26.146-11.696 26.146-26.146v-47.256c0-14.449-11.696-26.147-26.146-26.147zm0 6.221h47.258c12.22 0 19.923 7.702 19.923 19.925v47.255c0 12.223-7.703 19.928-19.923 19.928h-47.258c-12.222 0-19.926-7.705-19.926-19.928v-47.255c0-12.222 7.703-19.925 19.926-19.925z"/>
   <path id="path6-3" d="m13.554 36.947v38.294l0.527 0.965a5.573 5.573 0 0 0 2.604 2.365c0.654 0.29 2.712 0.312 32.821 0.312h32.131l0.945-0.437c1.186-0.53 2.26-1.658 2.715-2.86 0.328-0.855 0.344-1.748 0.344-25.958v-25.069l-0.38-0.51c-0.51-0.69-1.24-1.018-1.985-0.892-0.438 0.09-2.512 1.803-8.393 6.937l-7.808 6.844-0.09-6.408-0.09-6.39-0.51-0.417c-0.675-0.583-1.586-0.746-2.24-0.383-0.293 0.145-3.935 3.258-8.084 6.9l-7.556 6.626-0.09-6.207c-0.07-5.08-0.147-6.281-0.365-6.627-0.382-0.583-1.383-1.002-2.058-0.875-0.418 0.07-2.693 1.967-8.409 6.955l-7.826 6.862-0.21-12.693c-0.565-1.073-1.13-1.083-2.286-1.083 0.218-0.803-13.705 13.75-13.705 13.75zm25.576 21v7.007l-4.679-0.04-4.698-0.05-0.05-6.736c-0.02-3.696 0-6.844 0.05-6.954 0.05-0.181 1.166-0.238 4.733-0.238h4.643v7.012zm18.568 0v7.007h-9.284v-14.018h9.283v7.012zm18.568 0v7.007h-9.285v-14.018h9.285v7.012z"/>
  </g>
 </g>
</svg>
