<?xml version="1.0" encoding="UTF-8"?>
<svg id="svg7" width="100mm" height="100mm" version="1.1" viewBox="0 0 100 100" xmlns="http://www.w3.org/2000/svg" xmlns:cc="http://creativecommons.org/ns#" xmlns:dc="http://purl.org/dc/elements/1.1/" xmlns:rdf="http://www.w3.org/1999/02/22-rdf-syntax-ns#">
 <metadata id="metadata829">
  <rdf:RDF>
   <cc:Work rdf:about="">
    <dc:format>image/svg+xml</dc:format>
    <dc:type rdf:resource="http://purl.org/dc/dcmitype/StillImage"/>
    <cc:license rdf:resource="http://creativecommons.org/licenses/by-sa/4.0/"/>
    <dc:creator>
     <cc:Agent>
      <dc:title>ASTEE</dc:title>
     </cc:Agent>
    </dc:creator>
    <dc:contributor>
     <cc:Agent>
      <dc:title>ASTEE; Le Grand Lyon</dc:title>
     </cc:Agent>
    </dc:contributor>
    <dc:language>FR</dc:language>
    <dc:subject>
     <rdf:Bag>
      <rdf:li>eau</rdf:li>
      <rdf:li>potable</rdf:li>
      <rdf:li>assainissement</rdf:li>
     </rdf:Bag>
    </dc:subject>
    <dc:date/>
   </cc:Work>
   <cc:License rdf:about="http://creativecommons.org/licenses/by-sa/4.0/">
    <cc:permits rdf:resource="http://creativecommons.org/ns#Reproduction"/>
    <cc:permits rdf:resource="http://creativecommons.org/ns#Distribution"/>
    <cc:requires rdf:resource="http://creativecommons.org/ns#Notice"/>
    <cc:requires rdf:resource="http://creativecommons.org/ns#Attribution"/>
    <cc:permits rdf:resource="http://creativecommons.org/ns#DerivativeWorks"/>
    <cc:requires rdf:resource="http://creativecommons.org/ns#ShareAlike"/>
   </cc:License>
  </rdf:RDF>
 </metadata>
 <path id="path5" d="m372.11 42.134 260.91 150.64-260.91 150.64z" fill="#fff" stroke="#000" stroke-linecap="square" stroke-width="3.75" style="paint-order:stroke markers fill"/>
 <g id="g988" transform="translate(5.3984 -.08004)" stroke="#000">
  <path id="path3" transform="scale(.26458)" d="m152.02 37c-1.89 0.01-3.65 0.909-3.62 2.57v106.53c-0.13 2.16 3.07 2.77 5.48 1.77l131.5-54.533c1.41-0.515 2.02-1.154 0-1.807l-131.5-54.242c-0.59-0.199-1.24-0.294-1.86-0.291zm0 285.37a27.197 27.197 0 0 0-27.2 27.2 27.197 27.197 0 0 0 27.2 27.19 27.197 27.197 0 0 0 27.2-27.19 27.197 27.197 0 0 0-27.2-27.2z" stroke-width="3"/>
  <rect id="rect904" x="38.376" y="10.588" width="3.6212" height="78.908" stroke-linejoin="round" stroke-width=".59562"/>
 </g>
</svg>
