<?xml version="1.0" encoding="UTF-8" standalone="no"?>
<!-- Created with Inkscape (http://www.inkscape.org/) -->

<svg
   width="100"
   height="100"
   viewBox="0 0 26.458 26.459"
   version="1.1"
   id="svg5"
   xmlns="http://www.w3.org/2000/svg"
   xmlns:svg="http://www.w3.org/2000/svg">
  <defs
     id="defs2" />
  <g
     id="layer1">
    <path
       style="fill:none;stroke:#000000;stroke-width:1.56504"
       d="M 12.81,3.1115 C 2.0055,10.821 2.0055,10.821 2.0055,10.821 l 1.5893,8.883 8.7872,3.681 12.423,-8.96 z"
       id="path994" />
    <path
       style="fill:none;stroke-width:1.56504;stroke-linejoin:round"
       d="M 8.3056,20.783 C 6.1423,19.875 4.3608,19.12 4.3471,19.105 4.319,19.077 2.9326,11.383 2.9326,11.255 c 0,-0.08 9.6844,-7.0223 9.7974,-7.0236 0.06,0 10.752,10.0356 10.755,10.1006 0,0.04 -10.947,7.946 -11.153,8.055 -0.05,0.03 -1.863,-0.694 -4.0264,-1.604 z"
       id="path3217" />
    <circle
       style="fill:#000000;stroke-width:0.999999"
       cx="4.1427"
       cy="16.212"
       r="1.1907"
       id="circle5403" />
    <circle
       style="fill:#000000;stroke-width:0.999999"
       cx="17.476"
       cy="16.212"
       r="1.1907"
       id="circle5429" />
    <ellipse
       style="fill:#000000;stroke-width:0.999994"
       cx="21.677"
       cy="16.009"
       id="circle5433"
       rx="0.94687"
       ry="0.98751" />
    <circle
       style="fill:#000000;stroke-width:0.999999"
       cx="8.5871"
       cy="16.212"
       r="1.1907"
       id="circle5467" />
    <circle
       style="fill:#000000;stroke-width:0.999999"
       cx="13.032"
       cy="16.212"
       r="1.1907"
       id="circle5475" />
    <circle
       style="fill:#000000;stroke-width:0.999989"
       cx="6.4609"
       cy="19.013"
       r="1.1907"
       id="circle5403-2" />
    <circle
       style="fill:#000000;stroke-width:0.999989"
       cx="10.905"
       cy="19.013"
       r="1.1907"
       id="circle5467-7" />
    <circle
       style="fill:#000000;stroke-width:0.999989"
       cx="15.35"
       cy="19.013"
       r="1.1907"
       id="circle5475-3" />
    <circle
       style="fill:#000000;stroke-width:0.999989"
       cx="6.4607"
       cy="13.242"
       r="1.1907"
       id="circle5403-1" />
    <circle
       style="fill:#000000;stroke-width:0.999989"
       cx="19.794"
       cy="13.242"
       r="1.1907"
       id="circle5429-2" />
    <circle
       style="fill:#000000;stroke-width:0.999989"
       cx="10.905"
       cy="13.242"
       r="1.1907"
       id="circle5467-1" />
    <circle
       style="fill:#000000;stroke-width:0.999989"
       cx="15.35"
       cy="13.242"
       r="1.1907"
       id="circle5475-9" />
    <circle
       style="fill:#000000;stroke-width:0.999989"
       cx="4.1828"
       cy="10.327"
       r="1.1907"
       id="circle5403-7" />
    <circle
       style="fill:#000000;stroke-width:0.999989"
       cx="17.516"
       cy="10.327"
       r="1.1907"
       id="circle5429-84" />
    <circle
       style="fill:#000000;stroke-width:0.999989"
       cx="8.6271"
       cy="10.327"
       r="1.1907"
       id="circle5467-0" />
    <circle
       style="fill:#000000;stroke-width:0.999989"
       cx="13.072"
       cy="10.327"
       r="1.1907"
       id="circle5475-36" />
    <circle
       style="fill:#000000;stroke-width:0.999989"
       cx="10.871"
       cy="7.0013"
       r="1.1907"
       id="circle5467-2" />
    <circle
       style="fill:#000000;stroke-width:0.999989"
       cx="15.316"
       cy="7.0013"
       r="1.1907"
       id="circle5475-0" />
  </g>
</svg>
