<?xml version="1.0" encoding="UTF-8" standalone="no"?>
<!-- Created with Inkscape (http://www.inkscape.org/) -->

<svg
   width="100"
   height="100"
   viewBox="0 0 26.458 26.459"
   version="1.1"
   id="svg5"
   xmlns="http://www.w3.org/2000/svg"
   xmlns:svg="http://www.w3.org/2000/svg">
  <defs
     id="defs2" />
  <g
     id="layer1">
    <path
       style="fill:none;stroke:#000000;stroke-width:1.56504"
       d="M 12.81,3.1115 C 2.0055,10.821 2.0055,10.821 2.0055,10.821 l 1.5893,8.883 8.7872,3.681 12.423,-8.96 z"
       id="path994" />
    <path
       style="fill:#808080;stroke-width:5.91497;stroke-linejoin:round"
       d="M 31.178,78.468 C 23.238,75.114 16.65,72.328 16.539,72.278 16.146,72.1 11.01,42.469 11.319,42.161 11.482,41.997 19.818,36.017 29.842,28.872 l 18.228,-12.99 1.293,1.12 c 0.713,0.617 9.863,9.208 20.332,19.091 C 87.447,52.85 88.7,54.097 88.218,54.567 86.854,55.894 46.599,84.624 46.141,84.596 45.852,84.565 39.119,81.822 31.178,78.468 Z"
       id="path7090"
       transform="matrix(0.26459,0,0,0.26459,-5e-4,0)" />
  </g>
</svg>
