<svg class="iconify iconify--gis" width="30" height="30" aria-hidden="true" preserveAspectRatio="xMidYMid" role="img" version="1.1" viewBox="0 0 30 30" xmlns="http://www.w3.org/2000/svg">
  <path transform="matrix(-.07 1 -.96 -.26 0 0)" d="m3.4-21h1.6v8h-1.6zm3.2-2-1-2 9.4-3 1 2zm-0.5 14.1 0.4-2.1 9.5 4v1.9zm10.9-20.1a1.9 1.6 46 0 1 2 2 1.9 1.6 46 0 1-1 2 1.9 1.6 46 0 1-3-2 1.9 1.6 46 0 1 2-2zm-1-1a3.6 2.9 46 0 1 4 3 3.6 2.9 46 0 1-2 3 3.6 2.9 46 0 1-4-3 3.6 2.9 46 0 1 2-3zm-12.4 5a1.9 1.6 46 0 1 2.5 2 1.9 1.6 46 0 1-1.4 2 1.9 1.6 46 0 1-2.5-2 1.9 1.6 46 0 1 1.4-2zm-0.3-1a3.6 2.9 46 0 1 3.8 3 3.6 2.9 46 0 1-2.2 3 3.6 2.9 46 0 1-3.7-3 3.6 2.9 46 0 1 2.1-3zm0 13a1.9 1.6 46 0 1 2.5 2 1.9 1.6 46 0 1-1.4 2 1.9 1.6 46 0 1-2.5-2 1.9 1.6 46 0 1 1.4-2zm-0.3-1a3.6 2.9 46 0 1 3.8 3 3.6 2.9 46 0 1-2.2 3.1 3.6 2.9 46 0 1-3.71-3.1 3.6 2.9 46 0 1 2.11-3zm15 6.5a1.9 1.6 46 0 1 2 1.9 1.9 1.6 46 0 1-1 2.2 1.9 1.6 46 0 1-3-1.9 1.9 1.6 46 0 1 2-2.2zm-1-1.1a3.6 2.9 46 0 1 4 2.9 3.6 2.9 46 0 1-2 3.3 3.6 2.9 46 0 1-4-2.9 3.6 2.9 46 0 1 2-3.3z" style="stroke-width:8.74075"/>
  <circle cx="4" cy="20" r="1.4" style="fill:#fff;stroke-width:13.4254"/>
  <circle cx="10" cy="6.7" r="1.4" style="fill:#fff;stroke-width:13.4254"/>
  <circle cx="22" cy="10" r="1.4" style="fill:#fff;stroke-width:13.4254"/>
  <circle cx="25" cy="24" r="1.4" style="fill:#fff;stroke-width:13.4254"/>
</svg>
