<svg class="iconify iconify--gis" width="30" height="30" aria-hidden="true" preserveAspectRatio="xMidYMid" role="img" version="1.1" viewBox="0 0 30 30" xmlns="http://www.w3.org/2000/svg">
  <path d="m6 24c-0.3 1 17-5 17-5l-2-9-11-3.2-2.2 9.2z" style="fill:#ccc;stroke-width:1px"/>
  <path d="m54 3.5c-2 0-3 1.3-3 3.9 0 0 1 1.3 1 2.6l-2 6c-3 0-4 1-4 2 0 2 1 4 4 4 1 0 2-1 2-4 0-1 0-1-1-2l2-6h1c1 0 3 0 3-1.3l5 1.3c0 1 1 3 2 3l3 5c-1 2-1 2-1 3 0 2 1 4 2 4 2 0 4-2 4-4 0-1-2-3-4-3l-1-5c0-2 1-2 1-3a0.93 0.93 0 0 0 0-1.3c0-1.3-1-2.6-4-2.6-1 0-2 0-2 1.3l-5-1.3c0-1.3-2-2.6-3-2.6zm0 1.3c1 0 1 1.3 1 2.6 0 0 0 1.3-1 1.3s-1-1.3-1-1.3c0-1.3 0-2.6 1-2.6zm10 2.6c2 0 2 1.3 2 2.6 0 0 0 1-2 1-1 0-1-1-1-1 0-1.3 0-2.6 1-2.6zm-14 9.6s1 0 1 1c0 2-1 2-1 2-2 0-3 0-3-2 0-1 1-1 3-1zm18 3c2 0 2 0 2 1s0 1-2 1c-1 0-1 0-1-1s0-1 1-1z" fill="currentColor" style="stroke-width:.266785"/>
  <g transform="translate(-9,8.9)">
    <circle cx="15" cy="15" r="3.2" style="stroke-width:10"/>
    <circle cx="15" cy="15" r="1.7" style="fill:#fff;stroke-width:5.82582"/>
  </g>
  <g transform="translate(-4.7,-8.3)">
    <circle cx="15" cy="15" r="3.2" style="stroke-width:10"/>
    <circle cx="15" cy="15" r="1.7" style="fill:#fff;stroke-width:5.82582"/>
  </g>
  <g transform="translate(6.7,-4.9)">
    <circle cx="15" cy="15" r="3.2" style="stroke-width:10"/>
    <circle cx="15" cy="15" r="1.7" style="fill:#fff;stroke-width:5.82582"/>
  </g>
  <g transform="translate(8.5,4.4)">
    <circle cx="15" cy="15" r="3.2" style="stroke-width:10"/>
    <circle cx="15" cy="15" r="1.7" style="fill:#fff;stroke-width:5.82582"/>
  </g>
  <rect transform="matrix(.92 .39 -.25 .97 0 0)" x="11" y="4.8" width="1.7" height="13" style="stroke-width:11.6178"/>
  <rect transform="matrix(.99 .13 .15 .99 0 0)" x="20" y="9.5" width="1.7" height="5.2" style="stroke-width:7.16964"/>
  <rect transform="matrix(-.06 1 -.97 -.25 0 0)" x="3.2" y="-21" width="1.6" height="7.8" style="stroke-width:8.77134"/>
  <rect transform="matrix(-.22 .98 -.98 .22 0 0)" x="26" y="-28" width="1.9" height="14" style="stroke-width:12.4519"/>
</svg>
