<?xml version="1.0" encoding="UTF-8" standalone="no"?>
<svg
   width="100"
   height="100"
   version="1.1"
   viewBox="0 0 27 28"
   id="svg692"
   xmlns="http://www.w3.org/2000/svg"
   xmlns:svg="http://www.w3.org/2000/svg"
   xmlns:rdf="http://www.w3.org/1999/02/22-rdf-syntax-ns#"
   xmlns:cc="http://creativecommons.org/ns#">
  <defs
     id="defs696" />
  <metadata
     id="metadata690">
    <rdf:RDF>
      <cc:License
         rdf:about="http://creativecommons.org/licenses/by-nc-sa/4.0/">
        <cc:permits
           rdf:resource="http://creativecommons.org/ns#Reproduction" />
        <cc:permits
           rdf:resource="http://creativecommons.org/ns#Distribution" />
        <cc:requires
           rdf:resource="http://creativecommons.org/ns#Notice" />
        <cc:requires
           rdf:resource="http://creativecommons.org/ns#Attribution" />
        <cc:prohibits
           rdf:resource="http://creativecommons.org/ns#CommercialUse" />
        <cc:permits
           rdf:resource="http://creativecommons.org/ns#DerivativeWorks" />
        <cc:requires
           rdf:resource="http://creativecommons.org/ns#ShareAlike" />
      </cc:License>
      <cc:Work
         rdf:about="">
        <cc:license
           rdf:resource="http://creativecommons.org/licenses/by-nc-sa/4.0/" />
      </cc:Work>
    </rdf:RDF>
  </metadata>
  <rect
     style="fill:#000000;stroke-width:2.81188"
     id="rect5853"
     width="27"
     height="1.1"
     x="-0.11"
     y="11" />
  <rect
     style="fill:#000000;stroke-width:2.81188"
     id="rect5853-7"
     width="27"
     height="1.1"
     x="-27"
     y="-16"
     transform="scale(-1)" />
  <rect
     style="fill:#000000;stroke-width:4.33903"
     id="rect5855-58"
     width="0.48"
     height="2.6"
     x="-27"
     y="-18"
     transform="scale(-1)" />
  <rect
     style="fill:#000000;stroke-width:4.33903"
     id="rect5855-6-8"
     width="0.48"
     height="2.6"
     x="-26"
     y="-18"
     transform="scale(-1)" />
  <rect
     style="fill:#000000;stroke-width:4.33903"
     id="rect5855-7-4"
     width="0.48"
     height="2.6"
     x="-25"
     y="-18"
     transform="scale(-1)" />
  <rect
     style="fill:#000000;stroke-width:4.33903"
     id="rect5855-63-9"
     width="0.48"
     height="2.6"
     x="-24"
     y="-18"
     transform="scale(-1)" />
  <rect
     style="fill:#000000;stroke-width:4.33903"
     id="rect5855-8-8"
     width="0.48"
     height="2.6"
     x="-23"
     y="-18"
     transform="scale(-1)" />
  <rect
     style="fill:#000000;stroke-width:4.33903"
     id="rect5855-1-7"
     width="0.48"
     height="2.6"
     x="-22"
     y="-18"
     transform="scale(-1)" />
  <rect
     style="fill:#000000;stroke-width:4.33903"
     id="rect5855-12-6"
     width="0.48"
     height="2.6"
     x="-3.5"
     y="-18"
     transform="scale(-1)" />
  <rect
     style="fill:#000000;stroke-width:4.33903"
     id="rect5855-6-7-1"
     width="0.48"
     height="2.6"
     x="-2.5"
     y="-18"
     transform="scale(-1)" />
  <rect
     style="fill:#000000;stroke-width:4.33903"
     id="rect5855-7-1-8"
     width="0.48"
     height="2.6"
     x="-1.5"
     y="-18"
     transform="scale(-1)" />
  <rect
     style="fill:#000000;stroke-width:4.33903"
     id="rect5855-63-7-7"
     width="0.48"
     height="2.6"
     x="-0.53"
     y="-18"
     transform="scale(-1)" />
  <rect
     style="fill:#000000;stroke-width:4.33903"
     id="rect5855-78-6"
     width="0.48"
     height="2.6"
     x="-21"
     y="-18"
     transform="scale(-1)" />
  <rect
     style="fill:#000000;stroke-width:4.33903"
     id="rect5855-2-3"
     width="0.48"
     height="2.6"
     x="-20"
     y="-18"
     transform="scale(-1)" />
  <rect
     style="fill:#000000;stroke-width:4.33903"
     id="rect5855-16-5"
     width="0.48"
     height="2.6"
     x="-19"
     y="-18"
     transform="scale(-1)" />
  <rect
     style="fill:#000000;stroke-width:4.33903"
     id="rect5855-61-2"
     width="0.48"
     height="2.6"
     x="-18"
     y="-18"
     transform="scale(-1)" />
  <rect
     style="fill:#000000;stroke-width:4.33903"
     id="rect5855-5-7"
     width="0.48"
     height="2.6"
     x="-17"
     y="-18"
     transform="scale(-1)" />
  <rect
     style="fill:#000000;stroke-width:4.33903"
     id="rect5855-53-3"
     width="0.48"
     height="2.6"
     x="-16"
     y="-18"
     transform="scale(-1)" />
  <rect
     style="fill:#000000;stroke-width:4.33903"
     id="rect5855-72-3"
     width="0.48"
     height="2.6"
     x="-15"
     y="-18"
     transform="scale(-1)" />
  <rect
     style="fill:#000000;stroke-width:4.33903"
     id="rect5855-13-2"
     width="0.48"
     height="2.6"
     x="-14"
     y="-18"
     transform="scale(-1)" />
  <rect
     style="fill:#000000;stroke-width:4.33903"
     id="rect5855-789-6"
     width="0.48"
     height="2.6"
     x="-13"
     y="-18"
     transform="scale(-1)" />
  <rect
     style="fill:#000000;stroke-width:4.33903"
     id="rect5855-73-6"
     width="0.48"
     height="2.6"
     x="-12"
     y="-18"
     transform="scale(-1)" />
  <rect
     style="fill:#000000;stroke-width:4.33903"
     id="rect5855-24-9"
     width="0.48"
     height="2.6"
     x="-11"
     y="-18"
     transform="scale(-1)" />
  <rect
     style="fill:#000000;stroke-width:4.33903"
     id="rect5855-17-3"
     width="0.48"
     height="2.6"
     x="-8.4"
     y="-18"
     transform="scale(-1)" />
  <rect
     style="fill:#000000;stroke-width:4.33903"
     id="rect5855-19-6"
     width="0.48"
     height="2.6"
     x="-7.4"
     y="-18"
     transform="scale(-1)" />
  <rect
     style="fill:#000000;stroke-width:4.33903"
     id="rect5855-173-2"
     width="0.48"
     height="2.6"
     x="-6.4"
     y="-18"
     transform="scale(-1)" />
  <rect
     style="fill:#000000;stroke-width:4.33903"
     id="rect5855-60-4"
     width="0.48"
     height="2.6"
     x="-5.4"
     y="-18"
     transform="scale(-1)" />
  <rect
     style="fill:#000000;stroke-width:4.33903"
     id="rect5855-619-6"
     width="0.48"
     height="2.6"
     x="-4.5"
     y="-18"
     transform="scale(-1)" />
  <rect
     style="fill:#000000;stroke-width:4.33903"
     id="rect5855-79-6"
     width="0.48"
     height="2.6"
     x="-10"
     y="-18"
     transform="scale(-1)" />
  <rect
     style="fill:#000000;stroke-width:4.33903"
     id="rect5855-20-4"
     width="0.48"
     height="2.6"
     x="-9.4"
     y="-18"
     transform="scale(-1)" />
  <rect
     style="fill:#000000;stroke-width:4.33903"
     id="rect5855-58-3"
     width="0.48"
     height="2.6"
     x="-27"
     y="-12"
     transform="scale(-1)" />
  <rect
     style="fill:#000000;stroke-width:4.33903"
     id="rect5855-6-8-6"
     width="0.48"
     height="2.6"
     x="-26"
     y="-12"
     transform="scale(-1)" />
  <rect
     style="fill:#000000;stroke-width:4.33903"
     id="rect5855-7-4-4"
     width="0.48"
     height="2.6"
     x="-25"
     y="-12"
     transform="scale(-1)" />
  <rect
     style="fill:#000000;stroke-width:4.33903"
     id="rect5855-63-9-4"
     width="0.48"
     height="2.6"
     x="-24"
     y="-12"
     transform="scale(-1)" />
  <rect
     style="fill:#000000;stroke-width:4.33903"
     id="rect5855-8-8-2"
     width="0.48"
     height="2.6"
     x="-23"
     y="-12"
     transform="scale(-1)" />
  <rect
     style="fill:#000000;stroke-width:4.33903"
     id="rect5855-1-7-7"
     width="0.48"
     height="2.6"
     x="-22"
     y="-12"
     transform="scale(-1)" />
  <rect
     style="fill:#000000;stroke-width:4.33903"
     id="rect5855-12-6-8"
     width="0.48"
     height="2.6"
     x="-3.3"
     y="-12"
     transform="scale(-1)" />
  <rect
     style="fill:#000000;stroke-width:4.33903"
     id="rect5855-6-7-1-4"
     width="0.48"
     height="2.6"
     x="-2.3"
     y="-12"
     transform="scale(-1)" />
  <rect
     style="fill:#000000;stroke-width:4.33903"
     id="rect5855-7-1-8-7"
     width="0.48"
     height="2.6"
     x="-1.2"
     y="-12"
     transform="scale(-1)" />
  <rect
     style="fill:#000000;stroke-width:4.33903"
     id="rect5855-63-7-7-4"
     width="0.48"
     height="2.6"
     x="-0.25"
     y="-12"
     transform="scale(-1)" />
  <rect
     style="fill:#000000;stroke-width:4.33903"
     id="rect5855-78-6-4"
     width="0.48"
     height="2.6"
     x="-21"
     y="-12"
     transform="scale(-1)" />
  <rect
     style="fill:#000000;stroke-width:4.33903"
     id="rect5855-2-3-1"
     width="0.48"
     height="2.6"
     x="-20"
     y="-12"
     transform="scale(-1)" />
  <rect
     style="fill:#000000;stroke-width:4.33903"
     id="rect5855-16-5-1"
     width="0.48"
     height="2.6"
     x="-19"
     y="-12"
     transform="scale(-1)" />
  <rect
     style="fill:#000000;stroke-width:4.33903"
     id="rect5855-61-2-5"
     width="0.48"
     height="2.6"
     x="-18"
     y="-12"
     transform="scale(-1)" />
  <rect
     style="fill:#000000;stroke-width:4.33903"
     id="rect5855-5-7-0"
     width="0.48"
     height="2.6"
     x="-17"
     y="-12"
     transform="scale(-1)" />
  <rect
     style="fill:#000000;stroke-width:4.33903"
     id="rect5855-53-3-7"
     width="0.48"
     height="2.6"
     x="-16"
     y="-12"
     transform="scale(-1)" />
  <rect
     style="fill:#000000;stroke-width:4.33903"
     id="rect5855-72-3-0"
     width="0.48"
     height="2.6"
     x="-15"
     y="-12"
     transform="scale(-1)" />
  <rect
     style="fill:#000000;stroke-width:4.33903"
     id="rect5855-13-2-3"
     width="0.48"
     height="2.6"
     x="-14"
     y="-12"
     transform="scale(-1)" />
  <rect
     style="fill:#000000;stroke-width:4.33903"
     id="rect5855-789-6-8"
     width="0.48"
     height="2.6"
     x="-13"
     y="-12"
     transform="scale(-1)" />
  <rect
     style="fill:#000000;stroke-width:4.33903"
     id="rect5855-73-6-8"
     width="0.48"
     height="2.6"
     x="-12"
     y="-12"
     transform="scale(-1)" />
  <rect
     style="fill:#000000;stroke-width:4.33903"
     id="rect5855-24-9-4"
     width="0.48"
     height="2.6"
     x="-11"
     y="-12"
     transform="scale(-1)" />
  <rect
     style="fill:#000000;stroke-width:4.33903"
     id="rect5855-17-3-3"
     width="0.48"
     height="2.6"
     x="-8.3"
     y="-12"
     transform="scale(-1)" />
  <rect
     style="fill:#000000;stroke-width:4.33903"
     id="rect5855-19-6-5"
     width="0.48"
     height="2.6"
     x="-7.3"
     y="-12"
     transform="scale(-1)" />
  <rect
     style="fill:#000000;stroke-width:4.33903"
     id="rect5855-173-2-0"
     width="0.48"
     height="2.6"
     x="-6.3"
     y="-12"
     transform="scale(-1)" />
  <rect
     style="fill:#000000;stroke-width:4.33903"
     id="rect5855-60-4-9"
     width="0.48"
     height="2.6"
     x="-5.3"
     y="-12"
     transform="scale(-1)" />
  <rect
     style="fill:#000000;stroke-width:4.33903"
     id="rect5855-619-6-6"
     width="0.48"
     height="2.6"
     x="-4.3"
     y="-12"
     transform="scale(-1)" />
  <rect
     style="fill:#000000;stroke-width:4.33903"
     id="rect5855-79-6-6"
     width="0.48"
     height="2.6"
     x="-10"
     y="-12"
     transform="scale(-1)" />
  <rect
     style="fill:#000000;stroke-width:4.33903"
     id="rect5855-20-4-3"
     width="0.48"
     height="2.6"
     x="-9.3"
     y="-12"
     transform="scale(-1)" />
</svg>
