<?xml version="1.0" encoding="UTF-8"?>
<svg id="svg2682" width="100" height="100" version="1.1" xmlns="http://www.w3.org/2000/svg" xmlns:cc="http://creativecommons.org/ns#" xmlns:dc="http://purl.org/dc/elements/1.1/" xmlns:rdf="http://www.w3.org/1999/02/22-rdf-syntax-ns#">
 <metadata id="metadata829">
  <rdf:RDF>
   <cc:Work rdf:about="">
    <dc:format>image/svg+xml</dc:format>
    <dc:type rdf:resource="http://purl.org/dc/dcmitype/StillImage"/>
    <cc:license rdf:resource="http://creativecommons.org/licenses/by-sa/4.0/"/>
    <dc:creator>
     <cc:Agent>
      <dc:title>ASTEE</dc:title>
     </cc:Agent>
    </dc:creator>
    <dc:contributor>
     <cc:Agent>
      <dc:title>ASTEE; Le Grand Lyon</dc:title>
     </cc:Agent>
    </dc:contributor>
    <dc:language>FR</dc:language>
    <dc:subject>
     <rdf:Bag>
      <rdf:li>eau</rdf:li>
      <rdf:li>potable</rdf:li>
      <rdf:li>assainissement</rdf:li>
     </rdf:Bag>
    </dc:subject>
    <dc:date/>
   </cc:Work>
   <cc:License rdf:about="http://creativecommons.org/licenses/by-sa/4.0/">
    <cc:permits rdf:resource="http://creativecommons.org/ns#Reproduction"/>
    <cc:permits rdf:resource="http://creativecommons.org/ns#Distribution"/>
    <cc:requires rdf:resource="http://creativecommons.org/ns#Notice"/>
    <cc:requires rdf:resource="http://creativecommons.org/ns#Attribution"/>
    <cc:permits rdf:resource="http://creativecommons.org/ns#DerivativeWorks"/>
    <cc:requires rdf:resource="http://creativecommons.org/ns#ShareAlike"/>
   </cc:License>
  </rdf:RDF>
 </metadata>
 <path id="path2676" d="m25.356 1.3068h49.285c13.284 0 24.052 10.767 24.052 24.05v49.286c0 13.281-10.768 24.05-24.052 24.05h-49.285c-13.284 0-24.049-10.769-24.049-24.05v-49.286c1e-3 -13.283 10.766-24.05 24.049-24.05z" fill="#fff"/>
 <path id="path2678" d="m26.391 0.2665c-14.436 0-26.124 11.69-26.124 26.124v47.217c0 14.439 11.69 26.125 26.124 26.125h47.22c14.436 0 26.122-11.686 26.122-26.125v-47.217c0-14.436-11.686-26.124-26.122-26.124zm0 6.2246h47.22c9.992 0 19.895 9.7229 19.895 19.9v47.217c0 10.551-10.275 19.909-19.895 19.909h-47.22c-9.806 0-19.908-9.358-19.908-19.909v-47.217c-1e-3 -11.101 9.7287-19.9 19.908-19.9zm-9.789 37.016v28.711s-0.358 9.14 8.672 9.14h49.805s8.321-1.735 8.321-9.14v-28.711z"/>
</svg>
