<?xml version="1.0" encoding="UTF-8"?>
<svg id="svg2741" width="100" height="100" version="1.1" xmlns="http://www.w3.org/2000/svg" xmlns:cc="http://creativecommons.org/ns#" xmlns:dc="http://purl.org/dc/elements/1.1/" xmlns:rdf="http://www.w3.org/1999/02/22-rdf-syntax-ns#">
 <metadata id="metadata829">
  <rdf:RDF>
   <cc:Work rdf:about="">
    <dc:format>image/svg+xml</dc:format>
    <dc:type rdf:resource="http://purl.org/dc/dcmitype/StillImage"/>
    <cc:license rdf:resource="http://creativecommons.org/licenses/by-sa/4.0/"/>
    <dc:creator>
     <cc:Agent>
      <dc:title>ASTEE</dc:title>
     </cc:Agent>
    </dc:creator>
    <dc:contributor>
     <cc:Agent>
      <dc:title>ASTEE; Le Grand Lyon</dc:title>
     </cc:Agent>
    </dc:contributor>
    <dc:language>FR</dc:language>
    <dc:subject>
     <rdf:Bag>
      <rdf:li>eau</rdf:li>
      <rdf:li>potable</rdf:li>
      <rdf:li>assainissement</rdf:li>
     </rdf:Bag>
    </dc:subject>
    <dc:date/>
   </cc:Work>
   <cc:License rdf:about="http://creativecommons.org/licenses/by-sa/4.0/">
    <cc:permits rdf:resource="http://creativecommons.org/ns#Reproduction"/>
    <cc:permits rdf:resource="http://creativecommons.org/ns#Distribution"/>
    <cc:requires rdf:resource="http://creativecommons.org/ns#Notice"/>
    <cc:requires rdf:resource="http://creativecommons.org/ns#Attribution"/>
    <cc:permits rdf:resource="http://creativecommons.org/ns#DerivativeWorks"/>
    <cc:requires rdf:resource="http://creativecommons.org/ns#ShareAlike"/>
   </cc:License>
  </rdf:RDF>
 </metadata>
 <g id="layer2" transform="translate(3,3)">
  <circle id="circle2737" cx="47" cy="47" r="45.5" fill="#fff" stroke="#000" stroke-miterlimit="10" stroke-width="6"/>
  <path id="path2739" d="m23.609 22.628c-0.02-1.016 0.96-1.411 1.69-1.045l40.603 24.894c0.624 0.299 0.437 0.592 0 0.829l-40.603 25.025c-0.742 0.464-1.73 0.186-1.691-0.81v-48.891zm45.242-3.886c0.85 0 1.542 0.748 1.542 1.67v53.172c0 0.926-0.692 1.674-1.542 1.674-0.852 0-1.543-0.748-1.543-1.674v-53.172c0-0.922 0.69-1.67 1.543-1.67z"/>
 </g>
</svg>
