<?xml version="1.0" encoding="UTF-8"?>
<svg id="svg2887" width="100" height="100" version="1.1" xmlns="http://www.w3.org/2000/svg" xmlns:cc="http://creativecommons.org/ns#" xmlns:dc="http://purl.org/dc/elements/1.1/" xmlns:rdf="http://www.w3.org/1999/02/22-rdf-syntax-ns#">
 <metadata id="metadata829">
  <rdf:RDF>
   <cc:Work rdf:about="">
    <dc:format>image/svg+xml</dc:format>
    <dc:type rdf:resource="http://purl.org/dc/dcmitype/StillImage"/>
    <cc:license rdf:resource="http://creativecommons.org/licenses/by-sa/4.0/"/>
    <dc:creator>
     <cc:Agent>
      <dc:title>ASTEE</dc:title>
     </cc:Agent>
    </dc:creator>
    <dc:contributor>
     <cc:Agent>
      <dc:title>ASTEE; Le Grand Lyon</dc:title>
     </cc:Agent>
    </dc:contributor>
    <dc:language>FR</dc:language>
    <dc:subject>
     <rdf:Bag>
      <rdf:li>eau</rdf:li>
      <rdf:li>potable</rdf:li>
      <rdf:li>assainissement</rdf:li>
     </rdf:Bag>
    </dc:subject>
    <dc:date/>
   </cc:Work>
   <cc:License rdf:about="http://creativecommons.org/licenses/by-sa/4.0/">
    <cc:permits rdf:resource="http://creativecommons.org/ns#Reproduction"/>
    <cc:permits rdf:resource="http://creativecommons.org/ns#Distribution"/>
    <cc:requires rdf:resource="http://creativecommons.org/ns#Notice"/>
    <cc:requires rdf:resource="http://creativecommons.org/ns#Attribution"/>
    <cc:permits rdf:resource="http://creativecommons.org/ns#DerivativeWorks"/>
    <cc:requires rdf:resource="http://creativecommons.org/ns#ShareAlike"/>
   </cc:License>
  </rdf:RDF>
 </metadata>
 <circle id="circle2883" cx="50" cy="50" r="46.083" fill="#fff" stroke="#000" stroke-miterlimit="10" stroke-width="6"/>
 <path id="path2885" d="m22.634 12.922v74.149a45.792 45.792 0 0 0 6.081 3.795v-81.739a46.025 46.025 0 0 0-6.081 3.7946zm30.405-5.2426c0-1.382-0.216-2.656-0.575-3.698a46.87 46.87 0 0 0-4.93 0c-0.36 1.042-0.575 2.316-0.575 3.698v84.636c0 1.382 0.214 2.656 0.575 3.698 0.816 0.04 1.638 0.07 2.465 0.07 0.826 0 1.648-0.02 2.465-0.07 0.359-1.042 0.575-2.316 0.575-3.698zm18.246 1.449v81.738a45.889 45.889 0 0 0 6.081-3.796v-74.147a46.09 46.09 0 0 0-6.081-3.7946z" stroke="#000"/>
</svg>
