<?xml version="1.0" encoding="UTF-8"?>
<svg id="svg9" width="100" height="100" version="1.1" xmlns="http://www.w3.org/2000/svg" xmlns:cc="http://creativecommons.org/ns#" xmlns:dc="http://purl.org/dc/elements/1.1/" xmlns:rdf="http://www.w3.org/1999/02/22-rdf-syntax-ns#">
 <metadata id="metadata829">
  <rdf:RDF>
   <cc:Work rdf:about="">
    <dc:format>image/svg+xml</dc:format>
    <dc:type rdf:resource="http://purl.org/dc/dcmitype/StillImage"/>
    <cc:license rdf:resource="http://creativecommons.org/licenses/by-sa/4.0/"/>
    <dc:creator>
     <cc:Agent>
      <dc:title>ASTEE</dc:title>
     </cc:Agent>
    </dc:creator>
    <dc:contributor>
     <cc:Agent>
      <dc:title>ASTEE; Le Grand Lyon</dc:title>
     </cc:Agent>
    </dc:contributor>
    <dc:language>FR</dc:language>
    <dc:subject>
     <rdf:Bag>
      <rdf:li>eau</rdf:li>
      <rdf:li>potable</rdf:li>
      <rdf:li>assainissement</rdf:li>
     </rdf:Bag>
    </dc:subject>
    <dc:date/>
   </cc:Work>
   <cc:License rdf:about="http://creativecommons.org/licenses/by-sa/4.0/">
    <cc:permits rdf:resource="http://creativecommons.org/ns#Reproduction"/>
    <cc:permits rdf:resource="http://creativecommons.org/ns#Distribution"/>
    <cc:requires rdf:resource="http://creativecommons.org/ns#Notice"/>
    <cc:requires rdf:resource="http://creativecommons.org/ns#Attribution"/>
    <cc:permits rdf:resource="http://creativecommons.org/ns#DerivativeWorks"/>
    <cc:requires rdf:resource="http://creativecommons.org/ns#ShareAlike"/>
   </cc:License>
  </rdf:RDF>
 </metadata>
 <path id="path5" d="m26.371 0.2255c-14.447 0-26.146 11.7-26.146 26.146v47.257c0 14.449 11.699 26.146 26.146 26.146h47.258c14.447 0 26.146-11.697 26.146-26.146v-47.257c0-14.449-11.696-26.146-26.146-26.146zm0 6.221h47.258c12.22 0 19.923 7.7025 19.923 19.924v47.256c0 12.223-7.703 19.928-19.923 19.928h-47.258c-12.221 0-19.925-7.705-19.925-19.929v-47.255c0-12.221 7.7033-19.924 19.925-19.924z"/>
 <path id="path3" d="m25.337 1.267h49.328c13.293 0 24.068 10.777 24.068 24.071v49.326c0 13.293-10.775 24.069-24.068 24.069h-49.328c-13.294 0-24.07-10.776-24.07-24.069v-49.326c0-13.294 10.776-24.071 24.07-24.071z" fill="#fff" stroke="#000" stroke-width="6"/>
 <circle id="circle7" cx="50" cy="73.529" r="20.196" stroke-width=".99998"/>
</svg>
