<?xml version="1.0" encoding="UTF-8"?>
<svg id="svg9" width="100" height="100" version="1.1" xmlns="http://www.w3.org/2000/svg" xmlns:cc="http://creativecommons.org/ns#" xmlns:dc="http://purl.org/dc/elements/1.1/" xmlns:rdf="http://www.w3.org/1999/02/22-rdf-syntax-ns#">
 <metadata id="metadata829">
  <rdf:RDF>
   <cc:Work rdf:about="">
    <dc:format>image/svg+xml</dc:format>
    <dc:type rdf:resource="http://purl.org/dc/dcmitype/StillImage"/>
    <cc:license rdf:resource="http://creativecommons.org/licenses/by-sa/4.0/"/>
    <dc:creator>
     <cc:Agent>
      <dc:title>ASTEE</dc:title>
     </cc:Agent>
    </dc:creator>
    <dc:contributor>
     <cc:Agent>
      <dc:title>ASTEE; Le Grand Lyon</dc:title>
     </cc:Agent>
    </dc:contributor>
    <dc:language>FR</dc:language>
    <dc:subject>
     <rdf:Bag>
      <rdf:li>eau</rdf:li>
      <rdf:li>potable</rdf:li>
      <rdf:li>assainissement</rdf:li>
     </rdf:Bag>
    </dc:subject>
    <dc:date/>
   </cc:Work>
   <cc:License rdf:about="http://creativecommons.org/licenses/by-sa/4.0/">
    <cc:permits rdf:resource="http://creativecommons.org/ns#Reproduction"/>
    <cc:permits rdf:resource="http://creativecommons.org/ns#Distribution"/>
    <cc:requires rdf:resource="http://creativecommons.org/ns#Notice"/>
    <cc:requires rdf:resource="http://creativecommons.org/ns#Attribution"/>
    <cc:permits rdf:resource="http://creativecommons.org/ns#DerivativeWorks"/>
    <cc:requires rdf:resource="http://creativecommons.org/ns#ShareAlike"/>
   </cc:License>
  </rdf:RDF>
 </metadata>
 <circle id="circle3" cx="50" cy="50" r="46.25" fill="#fff" stroke="#000" stroke-miterlimit="10" stroke-width="6"/>
 <g id="g1120" transform="translate(.40786 -1.6675)" stroke="#000">
  <path id="path5" d="m57.509 27.532c1.829 0 3.31 0.759 3.31 1.694v53.899c0 0.939-1.484 1.697-3.31 1.697-1.83 0-3.313-0.758-3.313-1.697v-53.901c0-0.933 1.484-1.692 3.313-1.692zm-15.971 0c1.923 0 3.477 0.759 3.477 1.694v53.899c0 0.939-1.56 1.697-3.477 1.697-1.918 0-3.474-0.758-3.474-1.697v-53.901c0-0.933 1.564-1.692 3.474-1.692z"/>
  <path id="path7" d="m19.318 49.257c-0.577 3.515 2.525-28.244 30.289-28.244 30.298 0 30.506 31.501 30.29 28.246" fill="none" stroke-linecap="round" stroke-linejoin="round" stroke-miterlimit="10" stroke-width="6"/>
 </g>
</svg>
