<?xml version="1.0" encoding="UTF-8"?>
<svg id="svg2329" width="100" height="100" version="1.1" xmlns="http://www.w3.org/2000/svg" xmlns:cc="http://creativecommons.org/ns#" xmlns:dc="http://purl.org/dc/elements/1.1/" xmlns:rdf="http://www.w3.org/1999/02/22-rdf-syntax-ns#">
 <metadata id="metadata829">
  <rdf:RDF>
   <cc:Work rdf:about="">
    <dc:format>image/svg+xml</dc:format>
    <dc:type rdf:resource="http://purl.org/dc/dcmitype/StillImage"/>
    <cc:license rdf:resource="http://creativecommons.org/licenses/by-sa/4.0/"/>
    <dc:creator>
     <cc:Agent>
      <dc:title>ASTEE</dc:title>
     </cc:Agent>
    </dc:creator>
    <dc:contributor>
     <cc:Agent>
      <dc:title>ASTEE; Le Grand Lyon</dc:title>
     </cc:Agent>
    </dc:contributor>
    <dc:language>FR</dc:language>
    <dc:subject>
     <rdf:Bag>
      <rdf:li>eau</rdf:li>
      <rdf:li>potable</rdf:li>
      <rdf:li>assainissement</rdf:li>
     </rdf:Bag>
    </dc:subject>
    <dc:date/>
   </cc:Work>
   <cc:License rdf:about="http://creativecommons.org/licenses/by-sa/4.0/">
    <cc:permits rdf:resource="http://creativecommons.org/ns#Reproduction"/>
    <cc:permits rdf:resource="http://creativecommons.org/ns#Distribution"/>
    <cc:requires rdf:resource="http://creativecommons.org/ns#Notice"/>
    <cc:requires rdf:resource="http://creativecommons.org/ns#Attribution"/>
    <cc:permits rdf:resource="http://creativecommons.org/ns#DerivativeWorks"/>
    <cc:requires rdf:resource="http://creativecommons.org/ns#ShareAlike"/>
   </cc:License>
  </rdf:RDF>
 </metadata>
 <path id="path2323" d="m25.923 2.3412h48.154c12.978 0 23.499 10.541 23.499 23.541v48.238c0 12.999-10.521 23.539-23.499 23.539h-48.154c-12.977 0-23.499-10.54-23.499-23.539v-48.239c0-13 10.521-23.54 23.499-23.54z" fill="#fff"/>
 <path id="path2325" d="m26.451 0.3917c-14.4 0-26.06 11.66-26.06 26.06v47.098c0 14.401 11.66 26.058 26.06 26.058h47.098c14.4 0 26.06-11.655 26.06-26.058v-47.098c0-14.4-11.658-26.06-26.06-26.06zm0 4.1348h47.098a21.835 21.835 0 0 1 21.925 21.924v47.098a21.836 21.836 0 0 1-21.925 21.927h-47.098a21.835 21.835 0 0 1-21.926-21.927v-47.098a21.832 21.832 0 0 1 21.926-21.924zm-17.791 46.512a40.303 40.303 0 0 0 80.605 0z"/>
</svg>
