<?xml version="1.0" encoding="UTF-8"?>
<svg id="svg2391" width="100" height="100" version="1.1" xmlns="http://www.w3.org/2000/svg" xmlns:cc="http://creativecommons.org/ns#" xmlns:dc="http://purl.org/dc/elements/1.1/" xmlns:rdf="http://www.w3.org/1999/02/22-rdf-syntax-ns#">
 <metadata id="metadata829">
  <rdf:RDF>
   <cc:Work rdf:about="">
    <dc:format>image/svg+xml</dc:format>
    <dc:type rdf:resource="http://purl.org/dc/dcmitype/StillImage"/>
    <cc:license rdf:resource="http://creativecommons.org/licenses/by-sa/4.0/"/>
    <dc:creator>
     <cc:Agent>
      <dc:title>ASTEE</dc:title>
     </cc:Agent>
    </dc:creator>
    <dc:contributor>
     <cc:Agent>
      <dc:title>ASTEE; Le Grand Lyon</dc:title>
     </cc:Agent>
    </dc:contributor>
    <dc:language>FR</dc:language>
    <dc:subject>
     <rdf:Bag>
      <rdf:li>eau</rdf:li>
      <rdf:li>potable</rdf:li>
      <rdf:li>assainissement</rdf:li>
     </rdf:Bag>
    </dc:subject>
    <dc:date/>
   </cc:Work>
   <cc:License rdf:about="http://creativecommons.org/licenses/by-sa/4.0/">
    <cc:permits rdf:resource="http://creativecommons.org/ns#Reproduction"/>
    <cc:permits rdf:resource="http://creativecommons.org/ns#Distribution"/>
    <cc:requires rdf:resource="http://creativecommons.org/ns#Notice"/>
    <cc:requires rdf:resource="http://creativecommons.org/ns#Attribution"/>
    <cc:permits rdf:resource="http://creativecommons.org/ns#DerivativeWorks"/>
    <cc:requires rdf:resource="http://creativecommons.org/ns#ShareAlike"/>
   </cc:License>
  </rdf:RDF>
 </metadata>
 <path id="path2385" d="m25.543 1.674h48.914c13.182 0 23.868 10.687 23.868 23.87v48.914c0 13.182-10.688 23.868-23.868 23.868h-48.914c-13.183 0-23.868-10.688-23.868-23.868v-48.914c0-13.183 10.686-23.87 23.868-23.87z" fill="#feffff"/>
 <path id="path2387" d="m26.569 0.64153c-14.327 0-25.927 11.6-25.927 25.927v46.861c0 14.327 11.601 25.928 25.927 25.928h46.861c14.326 0 25.928-11.601 25.928-25.928v-46.861c0-14.327-11.602-25.927-25.928-25.927zm0 6.1778h46.861c9.916 0 19.75 9.6497 19.75 19.75v46.861c0 10.467-10.202 19.76-19.75 19.76h-46.861c-9.732 0-19.758-9.293-19.758-19.76v-46.861c0-11.019 9.6575-19.75 19.758-19.75zm-11.162 38.92a34.593 34.593 0 0 0 69.183 0z"/>
</svg>
