<?xml version="1.0" encoding="UTF-8" standalone="no"?>
<svg
   width="100"
   height="100"
   enable-background="new 0 0 99.213 99.213"
   version="1.1"
   viewBox="0 0 100 100"
   xml:space="preserve"
   id="svg15"
   sodipodi:docname="ASS_DEVERSEMENT.svg"
   inkscape:version="1.1.1 (3bf5ae0d25, 2021-09-20)"
   xmlns:inkscape="http://www.inkscape.org/namespaces/inkscape"
   xmlns:sodipodi="http://sodipodi.sourceforge.net/DTD/sodipodi-0.dtd"
   xmlns="http://www.w3.org/2000/svg"
   xmlns:svg="http://www.w3.org/2000/svg"><defs
   id="defs19" /><sodipodi:namedview
   id="namedview17"
   pagecolor="#505050"
   bordercolor="#eeeeee"
   borderopacity="1"
   inkscape:pageshadow="0"
   inkscape:pageopacity="0"
   inkscape:pagecheckerboard="0"
   showgrid="false"
   inkscape:zoom="6.46"
   inkscape:cx="50"
   inkscape:cy="50.077"
   inkscape:window-width="1598"
   inkscape:window-height="835"
   inkscape:window-x="0"
   inkscape:window-y="0"
   inkscape:window-maximized="1"
   inkscape:current-layer="svg15" />

<g
   transform="matrix(.97656 0 0 .97652 1.1729 -272.97)"
   stroke="param(fill) #000000"
   stroke-width="3"
   id="g3">
	<path
   id="SHAPE"
   d="m55.35 283.27 42.109 42.12c2.951 2.95 2.951 7.74 0 10.69l-42.109 42.11c-2.955 2.96-7.744 2.96-10.698 0l-42.11-42.11c-2.955-2.95-2.955-7.74 0-10.69l42.11-42.12c2.954-2.95 7.743-2.95 10.698 0z" />
</g>
<g
   transform="translate(.3945 -1.7735)"
   fill="param(outline) #ffffff"
   id="g13">
	<path
   d="m49.606 16.856v42z"
   id="path5" /><path
   d="m46.105 16.855v42h7v-42z"
   id="path7" />
	<path
   d="m49.631 86.691-13.227-28.809 26.403-.026z"
   id="path11"><path
   d="m63.586 57.355-27.961.03 14.008 30.51.453-.995zm-1.559 1-12.398 27.133-12.447-27.105z"
   id="path9" />
</path>
</g>
</svg>
