<svg width="100" height="100" enable-background="new 0 0 99.213 99.213" version="1.1" viewBox="0 0 100 100" xml:space="preserve" xmlns="http://www.w3.org/2000/svg">

<g transform="matrix(.97656 0 0 .97652 1.1729 -272.97)" stroke="param(fill) #000000" stroke-width="3">
	<path id="SHAPE" d="m55.35 283.27 42.109 42.12c2.951 2.95 2.951 7.74 0 10.69l-42.109 42.11c-2.955 2.96-7.744 2.96-10.698 0l-42.11-42.11c-2.955-2.95-2.955-7.74 0-10.69l42.11-42.12c2.954-2.95 7.743-2.95 10.698 0z"/>
</g>
<g transform="translate(.3945 -1.7735)" fill="param(outline) #ffffff">
	<path d="m49.606 16.856v42z"/><path d="m46.105 16.855v42h7v-42z"/>
	<path d="m49.631 86.691-13.227-28.809 26.403-.026z"><path d="m63.586 57.355-27.961.03 14.008 30.51.453-.995zm-1.559 1-12.398 27.133-12.447-27.105z"/>
</path>
</g>
</svg>
