<?xml version="1.0" encoding="UTF-8"?>
<svg id="svg1627" width="100" height="100" version="1.1" xmlns="http://www.w3.org/2000/svg" xmlns:cc="http://creativecommons.org/ns#" xmlns:dc="http://purl.org/dc/elements/1.1/" xmlns:rdf="http://www.w3.org/1999/02/22-rdf-syntax-ns#">
 <metadata id="metadata829">
  <rdf:RDF>
   <cc:Work rdf:about="">
    <dc:format>image/svg+xml</dc:format>
    <dc:type rdf:resource="http://purl.org/dc/dcmitype/StillImage"/>
    <cc:license rdf:resource="http://creativecommons.org/licenses/by-sa/4.0/"/>
    <dc:creator>
     <cc:Agent>
      <dc:title>ASTEE</dc:title>
     </cc:Agent>
    </dc:creator>
    <dc:contributor>
     <cc:Agent>
      <dc:title>ASTEE; Le Grand Lyon</dc:title>
     </cc:Agent>
    </dc:contributor>
    <dc:language>FR</dc:language>
    <dc:subject>
     <rdf:Bag>
      <rdf:li>eau</rdf:li>
      <rdf:li>potable</rdf:li>
      <rdf:li>assainissement</rdf:li>
     </rdf:Bag>
    </dc:subject>
    <dc:date/>
   </cc:Work>
   <cc:License rdf:about="http://creativecommons.org/licenses/by-sa/4.0/">
    <cc:permits rdf:resource="http://creativecommons.org/ns#Reproduction"/>
    <cc:permits rdf:resource="http://creativecommons.org/ns#Distribution"/>
    <cc:requires rdf:resource="http://creativecommons.org/ns#Notice"/>
    <cc:requires rdf:resource="http://creativecommons.org/ns#Attribution"/>
    <cc:permits rdf:resource="http://creativecommons.org/ns#DerivativeWorks"/>
    <cc:requires rdf:resource="http://creativecommons.org/ns#ShareAlike"/>
   </cc:License>
  </rdf:RDF>
 </metadata>
 <path id="path1621" d="m25.879-0.37695h49.533c13.351 0 24.172 10.822 24.172 24.172v49.532c0 13.35-10.821 24.171-24.172 24.171h-49.533c-13.349 0-24.171-10.821-24.171-24.171v-49.532c0-13.35 10.823-24.172 24.171-24.172z" fill="param(fill) #fff" stroke="param(fill) #fff" stroke-width="0"/>
 <path id="path1623" d="m26.271 0.01652c-14.508 0-26.255 11.748-26.255 26.255v47.453c0 14.508 11.747 26.258 26.255 26.258h47.457c14.51 0 26.256-11.75 26.256-26.258v-47.453c0-14.508-11.746-26.255-26.256-26.255zm0 6.2559h47.457c10.04 0 19.998 9.7716 19.998 20v47.453c0 10.6-10.328 20.01-19.998 20.01h-47.457c-9.855 0-20.009-9.41-20.009-20.01v-47.453c0-11.157 9.7814-20 20.009-20zm-11.432 39.678v3.937c0 12.443 6.715 23.958 17.586 30.162a35.506 35.506 0 0 0 35.143 0c10.871-6.203 17.603-17.719 17.603-30.162v-3.937zm8.934 7.871h52.467c-1.258 7.964-5.356 15.267-12.577 19.385a27.609 27.609 0 0 1-27.332 0c-7.217-4.119-11.3-11.421-12.558-19.385z" fill="param(outline) #000" stroke="param(outline) #000" />
</svg>
