<?xml version="1.0" encoding="UTF-8" standalone="no"?>
<svg
   xmlns:dc="http://purl.org/dc/elements/1.1/"
   xmlns:cc="http://creativecommons.org/ns#"
   xmlns:rdf="http://www.w3.org/1999/02/22-rdf-syntax-ns#"
   xmlns:svg="http://www.w3.org/2000/svg"
   xmlns="http://www.w3.org/2000/svg"
   xmlns:sodipodi="http://sodipodi.sourceforge.net/DTD/sodipodi-0.dtd"
   xmlns:inkscape="http://www.inkscape.org/namespaces/inkscape"
   width="98.250595"
   height="98.250595"
   version="1.1"
   id="svg2619"
   sodipodi:docname="ASS_BATARDEAU.min.svg"
   inkscape:version="0.92.3 (2405546, 2018-03-11)">
<metadata
     id="metadata829">
    <rdf:RDF>
      <cc:Work
         rdf:about="">
        <dc:format>image/svg+xml</dc:format>
        <dc:type
           rdf:resource="http://purl.org/dc/dcmitype/StillImage" />
        <dc:title></dc:title>
        <cc:license
           rdf:resource="http://creativecommons.org/licenses/by-sa/4.0/" />
        <dc:creator>
          <cc:Agent>
            <dc:title>ASTEE</dc:title>
          </cc:Agent>
        </dc:creator>
        <dc:contributor>
          <cc:Agent>
            <dc:title>ASTEE; Le Grand Lyon</dc:title>
          </cc:Agent>
        </dc:contributor>
        <dc:language>FR</dc:language>
        <dc:subject>
          <rdf:Bag>
            <rdf:li>eau</rdf:li>
            <rdf:li>potable</rdf:li>
            <rdf:li>assainissement</rdf:li>
          </rdf:Bag>
        </dc:subject>
        <dc:date></dc:date>
      </cc:Work>
      <cc:License
         rdf:about="http://creativecommons.org/licenses/by-sa/4.0/">
        <cc:permits
           rdf:resource="http://creativecommons.org/ns#Reproduction" />
        <cc:permits
           rdf:resource="http://creativecommons.org/ns#Distribution" />
        <cc:requires
           rdf:resource="http://creativecommons.org/ns#Notice" />
        <cc:requires
           rdf:resource="http://creativecommons.org/ns#Attribution" />
        <cc:permits
           rdf:resource="http://creativecommons.org/ns#DerivativeWorks" />
        <cc:requires
           rdf:resource="http://creativecommons.org/ns#ShareAlike" />
      </cc:License>
    </rdf:RDF>
  </metadata>
    <defs
     id="defs2623" />
  <sodipodi:namedview
     pagecolor="#ffffff"
     bordercolor="#666666"
     borderopacity="1"
     objecttolerance="10"
     gridtolerance="10"
     guidetolerance="10"
     inkscape:pageopacity="0"
     inkscape:pageshadow="2"
     inkscape:window-width="2560"
     inkscape:window-height="1370"
     id="namedview2621"
     showgrid="false"
     fit-margin-top="0"
     fit-margin-left="0"
     fit-margin-right="0"
     fit-margin-bottom="0"
     inkscape:zoom="12.179808"
     inkscape:cx="62.804524"
     inkscape:cy="52.846216"
     inkscape:window-x="0"
     inkscape:window-y="42"
     inkscape:window-maximized="1"
     inkscape:current-layer="svg2619" />
  <circle
     cx="49.124851"
     cy="49.049881"
     r="48.972"
     id="circle2609"
     style="fill:param(fill) #fff;fill-opacity:param(fill-opacity) 1" />
  <path
     d="m 49.126268,0.4964796 c -26.821814,0 -48.6297884,21.8040494 -48.6297884,48.6278494 0,26.824793 21.8069814,48.62979 48.6297884,48.62979 26.819828,0 48.62785,-21.806983 48.62785,-48.62979 0,-26.822807 -21.80405,-48.6278494 -48.62785,-48.6278494 z m 0,6.0721784 C 72.660394,6.568658 91.68,25.586231 91.68,49.124329 91.68,72.66342 72.660394,91.678061 49.126268,91.678061 25.58817,91.678061 6.5705974,72.660441 6.5705974,49.124329 6.5696044,25.58921 25.58817,6.568658 49.126268,6.568658 Z M 24.969433,23.543994 v 0.002 c -1.17765,0 -2.127493,0.88198 -2.127493,1.976221 v 33.814915 0.03685 8.992874 0.03878 8.988995 0.04073 c 0,0.272568 0.05922,0.531637 0.166786,0.767992 v 0.002 c 0.05365,0.117618 0.119784,0.228892 0.195878,0.333571 v 0.002 c 0.229214,0.314852 0.553277,0.565707 0.934777,0.715629 0,0 0.002,0 0.002,0 0.126809,0.04971 0.259573,0.08819 0.397572,0.114424 0,0 0.002,0 0.002,0 0.138045,0.02611 0.282176,0.04073 0.428601,0.04073 h 0.04267 48.622032 c 0.587832,0 1.119686,-0.222159 1.504954,-0.579873 0.385889,-0.357465 0.626417,-0.851214 0.626417,-1.396348 V 25.520215 c 0,-1.092255 -0.9567,-1.976221 -2.131371,-1.976221 h -0.03879 v 0.002 c -1.178643,0 -2.131418,0.88198 -2.129432,1.976221 v 31.83674 H 27.139592 v -31.83874 c 0,-1.092255 -0.954808,-1.976221 -2.127493,-1.976221 z m 2.170159,37.806145 h 44.326319 v 5.038493 H 27.139592 Z m 0,9.029723 h 44.326319 v 5.038492 H 27.139592 Z"
     id="path2611"
     inkscape:connector-curvature="0"
     style="fill:param(outline) #000" />
</svg>
