<svg xmlns="http://www.w3.org/2000/svg" width="99.213" height="99.213">
<metadata
     id="metadata829">
    <rdf:RDF>
      <cc:Work
         rdf:about="">
        <dc:format>image/svg+xml</dc:format>
        <dc:type
           rdf:resource="http://purl.org/dc/dcmitype/StillImage" />
        <dc:title></dc:title>
        <cc:license
           rdf:resource="http://creativecommons.org/licenses/by-sa/4.0/" />
        <dc:creator>
          <cc:Agent>
            <dc:title>ASTEE</dc:title>
          </cc:Agent>
        </dc:creator>
        <dc:contributor>
          <cc:Agent>
            <dc:title>ASTEE; Le Grand Lyon</dc:title>
          </cc:Agent>
        </dc:contributor>
        <dc:language>FR</dc:language>
        <dc:subject>
          <rdf:Bag>
            <rdf:li>eau</rdf:li>
            <rdf:li>potable</rdf:li>
            <rdf:li>assainissement</rdf:li>
          </rdf:Bag>
        </dc:subject>
        <dc:date></dc:date>
      </cc:Work>
      <cc:License
         rdf:about="http://creativecommons.org/licenses/by-sa/4.0/">
        <cc:permits
           rdf:resource="http://creativecommons.org/ns#Reproduction" />
        <cc:permits
           rdf:resource="http://creativecommons.org/ns#Distribution" />
        <cc:requires
           rdf:resource="http://creativecommons.org/ns#Notice" />
        <cc:requires
           rdf:resource="http://creativecommons.org/ns#Attribution" />
        <cc:permits
           rdf:resource="http://creativecommons.org/ns#DerivativeWorks" />
        <cc:requires
           rdf:resource="http://creativecommons.org/ns#ShareAlike" />
      </cc:License>
    </rdf:RDF>
  </metadata>
  
    <path fill="param(fill) #FFFFFF" fill-opacity="param(fill-opacity) 1" stroke="#FFF" stroke-width=".265" d="M24.943.877h49.328c13.293 0 24.068 10.777 24.068 24.071v49.326c0 13.293-10.775 24.068-24.068 24.068H24.943c-13.294 0-24.07-10.775-24.07-24.068V24.948C.874 11.654 11.649.877 24.943.877z"/>
    <path fill="param(outline) #000" d="M25.979-.168C11.531-.168-.168 11.531-.168 25.979v47.256c0 14.449 11.699 26.146 26.147 26.146h47.258c14.447 0 26.146-11.696 26.146-26.146V25.979c0-14.449-11.696-26.147-26.146-26.147H25.979zm0 6.221h47.258c12.22 0 19.923 7.702 19.923 19.925v47.255c0 12.223-7.703 19.928-19.923 19.928H25.979c-12.222 0-19.926-7.705-19.926-19.928V25.978c0-12.222 7.703-19.925 19.926-19.925z"/>
    <path fill="param(outline) #000" d="M13.554 37.947V76.241l.527.965a5.573 5.573 0 002.604 2.365c.654.29 2.712.312 32.821.312h32.131l.945-.437c1.186-.53 2.26-1.658 2.715-2.86.328-.855.344-1.748.344-25.958V25.559l-.38-.51c-.51-.69-1.24-1.018-1.985-.892-.438.092-2.512 1.803-8.393 6.937l-7.808 6.844-.094-6.408-.088-6.39-.51-.417c-.675-.583-1.586-.746-2.24-.383-.293.145-3.935 3.258-8.084 6.9l-7.556 6.626-.09-6.207c-.074-5.08-.147-6.281-.365-6.627-.382-.583-1.383-1.002-2.058-.875-.418.073-2.693 1.967-8.409 6.955l-7.826 6.862-.21-12.693c-.565-1.074-1.13-1.083-2.286-1.083.218-.802-13.705 13.75-13.705 13.75zm25.576 21v7.007l-4.679-.037-4.698-.053-.054-6.736c-.018-3.696 0-6.844.054-6.953.055-.182 1.166-.239 4.733-.239h4.643v7.012h.001zm18.568 0v7.007H48.414V51.936h9.283v7.012zm18.568 0v7.007h-9.285V51.936h9.285v7.012z"/>
</svg>
