<svg xmlns="http://www.w3.org/2000/svg" width="99.213" height="99.213">
<metadata
     id="metadata829">
    <rdf:RDF>
      <cc:Work
         rdf:about="">
        <dc:format>image/svg+xml</dc:format>
        <dc:type
           rdf:resource="http://purl.org/dc/dcmitype/StillImage" />
        <dc:title></dc:title>
        <cc:license
           rdf:resource="http://creativecommons.org/licenses/by-sa/4.0/" />
        <dc:creator>
          <cc:Agent>
            <dc:title>ASTEE</dc:title>
          </cc:Agent>
        </dc:creator>
        <dc:contributor>
          <cc:Agent>
            <dc:title>ASTEE; Le Grand Lyon</dc:title>
          </cc:Agent>
        </dc:contributor>
        <dc:language>FR</dc:language>
        <dc:subject>
          <rdf:Bag>
            <rdf:li>eau</rdf:li>
            <rdf:li>potable</rdf:li>
            <rdf:li>assainissement</rdf:li>
          </rdf:Bag>
        </dc:subject>
        <dc:date></dc:date>
      </cc:Work>
      <cc:License
         rdf:about="http://creativecommons.org/licenses/by-sa/4.0/">
        <cc:permits
           rdf:resource="http://creativecommons.org/ns#Reproduction" />
        <cc:permits
           rdf:resource="http://creativecommons.org/ns#Distribution" />
        <cc:requires
           rdf:resource="http://creativecommons.org/ns#Notice" />
        <cc:requires
           rdf:resource="http://creativecommons.org/ns#Attribution" />
        <cc:permits
           rdf:resource="http://creativecommons.org/ns#DerivativeWorks" />
        <cc:requires
           rdf:resource="http://creativecommons.org/ns#ShareAlike" />
      </cc:License>
    </rdf:RDF>
  </metadata>
  
    <path fill="param(fill) #FFFFFF" fill-opacity="param(fill-opacity) 1" d="M25.15 1.28h48.913c13.183 0 23.869 10.686 23.869 23.869v48.914c0 13.182-10.687 23.869-23.869 23.869H25.15c-13.183 0-23.869-10.688-23.869-23.869V25.149C1.281 11.966 11.967 1.28 25.15 1.28z"/>
    <path fill="param(outline) #000" d="M26.176.248C11.848.248.248 11.849.248 26.176v46.86c0 14.329 11.601 25.93 25.928 25.93h46.862c14.326 0 25.927-11.601 25.927-25.93v-46.86C98.965 11.848 87.364.248 73.038.248H26.176zm0 6.17h46.862c11.21 0 19.757 8.417 19.757 19.758v46.86c0 12.121-9.065 19.761-19.757 19.761H26.175c-11.08 0-19.758-8.418-19.758-19.761v-46.86c0-10.951 8.937-19.758 19.759-19.758z"/>
    <path fill="param(outline) #000"  d="M84.976 49.607c0 19.423-15.945 35.367-35.368 35.367-19.569 0-35.368-15.943-35.368-35.367 0-19.568 15.799-35.368 35.368-35.368 19.422-.001 35.368 15.8 35.368 35.368z"/>
</svg>
