<?xml version="1.0" encoding="UTF-8" standalone="no"?>
<svg
   xmlns:dc="http://purl.org/dc/elements/1.1/"
   xmlns:cc="http://creativecommons.org/ns#"
   xmlns:rdf="http://www.w3.org/1999/02/22-rdf-syntax-ns#"
   xmlns:svg="http://www.w3.org/2000/svg"
   xmlns="http://www.w3.org/2000/svg"
   xmlns:sodipodi="http://sodipodi.sourceforge.net/DTD/sodipodi-0.dtd"
   xmlns:inkscape="http://www.inkscape.org/namespaces/inkscape"
   width="99.213"
   height="99.213"
   version="1.1"
   id="svg2329"
   sodipodi:docname="ASS_BASSINCO_M.min.svg"
   inkscape:version="0.92.3 (2405546, 2018-03-11)">
<metadata
     id="metadata829">
    <rdf:RDF>
      <cc:Work
         rdf:about="">
        <dc:format>image/svg+xml</dc:format>
        <dc:type
           rdf:resource="http://purl.org/dc/dcmitype/StillImage" />
        <dc:title></dc:title>
        <cc:license
           rdf:resource="http://creativecommons.org/licenses/by-sa/4.0/" />
        <dc:creator>
          <cc:Agent>
            <dc:title>ASTEE</dc:title>
          </cc:Agent>
        </dc:creator>
        <dc:contributor>
          <cc:Agent>
            <dc:title>ASTEE; Le Grand Lyon</dc:title>
          </cc:Agent>
        </dc:contributor>
        <dc:language>FR</dc:language>
        <dc:subject>
          <rdf:Bag>
            <rdf:li>eau</rdf:li>
            <rdf:li>potable</rdf:li>
            <rdf:li>assainissement</rdf:li>
          </rdf:Bag>
        </dc:subject>
        <dc:date></dc:date>
      </cc:Work>
      <cc:License
         rdf:about="http://creativecommons.org/licenses/by-sa/4.0/">
        <cc:permits
           rdf:resource="http://creativecommons.org/ns#Reproduction" />
        <cc:permits
           rdf:resource="http://creativecommons.org/ns#Distribution" />
        <cc:requires
           rdf:resource="http://creativecommons.org/ns#Notice" />
        <cc:requires
           rdf:resource="http://creativecommons.org/ns#Attribution" />
        <cc:permits
           rdf:resource="http://creativecommons.org/ns#DerivativeWorks" />
        <cc:requires
           rdf:resource="http://creativecommons.org/ns#ShareAlike" />
      </cc:License>
    </rdf:RDF>
  </metadata>
    <defs
     id="defs2333" />
  <sodipodi:namedview
     pagecolor="#ffffff"
     bordercolor="#666666"
     borderopacity="1"
     objecttolerance="10"
     gridtolerance="10"
     guidetolerance="10"
     inkscape:pageopacity="0"
     inkscape:pageshadow="2"
     inkscape:window-width="2560"
     inkscape:window-height="1370"
     id="namedview2331"
     showgrid="false"
     inkscape:zoom="6.0123171"
     inkscape:cx="133.7657"
     inkscape:cy="48.072874"
     inkscape:window-x="0"
     inkscape:window-y="42"
     inkscape:window-maximized="1"
     inkscape:current-layer="svg2329" />
  <path
     d="m 26.395999,0.99339632 h 48.15356 c 12.978472,0 23.49936,10.54026068 23.49936,23.54043768 v 48.237733 c 0,12.999196 -10.520888,23.539456 -23.49936,23.539456 h -48.15356 c -12.977493,0 -23.4983808,-10.54026 -23.4983808,-23.539456 V 24.532853 c 0,-13.000178 10.5199088,-23.53945668 23.4983808,-23.53945668 z"
     id="path2323"
     inkscape:connector-curvature="0"
     style="fill:param(fill) #fff;fill-opacity:param(fill-opacity) 1;" />
  <path
     fill="param(outline) #000"
     d="m 26.395999,0.99339632 c -14.4,0 -26.06054698,11.66054768 -26.06054698,26.06054768 V 74.1516 c 0,14.401 11.66054698,26.06054 26.06054698,26.06054 h 47.097654 c 14.4,0 26.060546,-11.65754 26.060546,-26.06054 V 27.053944 c 0,-14.4 -11.658546,-26.06054768 -26.060546,-26.06054768 z m 0,4.13476558 H 73.493653 A 21.835,21.835 0 0 1 95.419433,27.051991 V 74.149647 A 21.836,21.836 0 0 1 73.493653,96.077383 H 26.395999 A 21.835,21.835 0 0 1 4.470218,74.149647 V 27.051991 A 21.832,21.832 0 0 1 26.395999,5.1281619 Z M 8.604983,51.639881 a 40.303,40.303 0 0 0 80.60547,0 z"
     id="path2325"
     inkscape:connector-curvature="0" />
</svg>
