<?xml version="1.0" encoding="UTF-8" standalone="no"?>
<svg
   xmlns:dc="http://purl.org/dc/elements/1.1/"
   xmlns:cc="http://creativecommons.org/ns#"
   xmlns:rdf="http://www.w3.org/1999/02/22-rdf-syntax-ns#"
   xmlns:svg="http://www.w3.org/2000/svg"
   xmlns="http://www.w3.org/2000/svg"
   xmlns:sodipodi="http://sodipodi.sourceforge.net/DTD/sodipodi-0.dtd"
   xmlns:inkscape="http://www.inkscape.org/namespaces/inkscape"
   width="99.466797"
   height="99.466797"
   version="1.1"
   id="svg2682"
   sodipodi:docname="ASS_CHAMBREDEPOLLUTION.min.svg"
   inkscape:version="0.92.3 (2405546, 2018-03-11)">
<metadata
     id="metadata829">
    <rdf:RDF>
      <cc:Work
         rdf:about="">
        <dc:format>image/svg+xml</dc:format>
        <dc:type
           rdf:resource="http://purl.org/dc/dcmitype/StillImage" />
        <dc:title></dc:title>
        <cc:license
           rdf:resource="http://creativecommons.org/licenses/by-sa/4.0/" />
        <dc:creator>
          <cc:Agent>
            <dc:title>ASTEE</dc:title>
          </cc:Agent>
        </dc:creator>
        <dc:contributor>
          <cc:Agent>
            <dc:title>ASTEE; Le Grand Lyon</dc:title>
          </cc:Agent>
        </dc:contributor>
        <dc:language>FR</dc:language>
        <dc:subject>
          <rdf:Bag>
            <rdf:li>eau</rdf:li>
            <rdf:li>potable</rdf:li>
            <rdf:li>assainissement</rdf:li>
          </rdf:Bag>
        </dc:subject>
        <dc:date></dc:date>
      </cc:Work>
      <cc:License
         rdf:about="http://creativecommons.org/licenses/by-sa/4.0/">
        <cc:permits
           rdf:resource="http://creativecommons.org/ns#Reproduction" />
        <cc:permits
           rdf:resource="http://creativecommons.org/ns#Distribution" />
        <cc:requires
           rdf:resource="http://creativecommons.org/ns#Notice" />
        <cc:requires
           rdf:resource="http://creativecommons.org/ns#Attribution" />
        <cc:permits
           rdf:resource="http://creativecommons.org/ns#DerivativeWorks" />
        <cc:requires
           rdf:resource="http://creativecommons.org/ns#ShareAlike" />
      </cc:License>
    </rdf:RDF>
  </metadata>
    <defs
     id="defs2686" />
  <sodipodi:namedview
     pagecolor="#ffffff"
     bordercolor="#666666"
     borderopacity="1"
     objecttolerance="10"
     gridtolerance="10"
     guidetolerance="10"
     inkscape:pageopacity="0"
     inkscape:pageshadow="2"
     inkscape:window-width="2560"
     inkscape:window-height="1370"
     id="namedview2684"
     showgrid="false"
     fit-margin-top="0"
     fit-margin-left="0"
     fit-margin-right="0"
     fit-margin-bottom="0"
     inkscape:zoom="12.024634"
     inkscape:cx="76.973194"
     inkscape:cy="65.066107"
     inkscape:window-x="0"
     inkscape:window-y="42"
     inkscape:window-maximized="1"
     inkscape:current-layer="svg2682" />
  <path
     d="m 24.711236,1.3306018 h 49.285 c 13.284,0 24.051998,10.7670002 24.051998,24.0499992 v 49.286 c 0,13.281 -10.767998,24.05 -24.051998,24.05 h -49.285 c -13.284,0 -24.0500004,-10.769 -24.0500004,-24.05 v -49.286 C 0.6622356,12.097602 11.428236,1.3306018 24.711236,1.3306018 Z"
     id="path2676"
     inkscape:connector-curvature="0"
     style="fill:param(fill) #fff;fill-opacity:param(fill-opacity) 1;" />
  <path
     fill="param(outline) #000"
     d="M 26.125,0 C 11.688,0 0,11.689 0,26.125 v 47.216797 c 0,14.438 11.689,26.125 26.125,26.125 h 47.21875 c 14.437,0 26.123047,-11.687 26.123047,-26.125 V 26.125 C 99.466797,11.688 87.77975,0 73.34375,0 Z m 0,6.2246093 h 47.21875 c 9.993,0 19.896484,9.7233907 19.896484,19.9003907 V 73.341797 C 93.240234,83.891797 82.96375,93.25 73.34375,93.25 H 26.125 C 16.318,93.25 6.2167969,83.891797 6.2167969,73.341797 V 26.125 C 6.2157968,15.023 15.946,6.2246094 26.125,6.2246093 Z M 16.335937,43.240234 v 28.710938 c 0,0 -0.358125,9.140625 8.671875,9.140625 H 74.8125 c 0,0 8.320312,-1.735625 8.320312,-9.140625 V 43.240234 Z"
     id="path2678"
     inkscape:connector-curvature="0" />
</svg>
