<?xml version="1.0" encoding="UTF-8" standalone="no"?>
<svg
   xmlns:dc="http://purl.org/dc/elements/1.1/"
   xmlns:cc="http://creativecommons.org/ns#"
   xmlns:rdf="http://www.w3.org/1999/02/22-rdf-syntax-ns#"
   xmlns:svg="http://www.w3.org/2000/svg"
   xmlns="http://www.w3.org/2000/svg"
   xmlns:sodipodi="http://sodipodi.sourceforge.net/DTD/sodipodi-0.dtd"
   xmlns:inkscape="http://www.inkscape.org/namespaces/inkscape"
   width="99.213"
   height="99.213"
   version="1.1"
   id="svg1627"
   sodipodi:docname="ASS_BASSINCO.min.svg"
   inkscape:version="0.92.3 (2405546, 2018-03-11)">
<metadata
     id="metadata829">
    <rdf:RDF>
      <cc:Work
         rdf:about="">
        <dc:format>image/svg+xml</dc:format>
        <dc:type
           rdf:resource="http://purl.org/dc/dcmitype/StillImage" />
        <dc:title></dc:title>
        <cc:license
           rdf:resource="http://creativecommons.org/licenses/by-sa/4.0/" />
        <dc:creator>
          <cc:Agent>
            <dc:title>ASTEE</dc:title>
          </cc:Agent>
        </dc:creator>
        <dc:contributor>
          <cc:Agent>
            <dc:title>ASTEE; Le Grand Lyon</dc:title>
          </cc:Agent>
        </dc:contributor>
        <dc:language>FR</dc:language>
        <dc:subject>
          <rdf:Bag>
            <rdf:li>eau</rdf:li>
            <rdf:li>potable</rdf:li>
            <rdf:li>assainissement</rdf:li>
          </rdf:Bag>
        </dc:subject>
        <dc:date></dc:date>
      </cc:Work>
      <cc:License
         rdf:about="http://creativecommons.org/licenses/by-sa/4.0/">
        <cc:permits
           rdf:resource="http://creativecommons.org/ns#Reproduction" />
        <cc:permits
           rdf:resource="http://creativecommons.org/ns#Distribution" />
        <cc:requires
           rdf:resource="http://creativecommons.org/ns#Notice" />
        <cc:requires
           rdf:resource="http://creativecommons.org/ns#Attribution" />
        <cc:permits
           rdf:resource="http://creativecommons.org/ns#DerivativeWorks" />
        <cc:requires
           rdf:resource="http://creativecommons.org/ns#ShareAlike" />
      </cc:License>
    </rdf:RDF>
  </metadata>
    <defs
     id="defs1631" />
  <sodipodi:namedview
     pagecolor="#ffffff"
     bordercolor="#666666"
     borderopacity="1"
     objecttolerance="10"
     gridtolerance="10"
     guidetolerance="10"
     inkscape:pageopacity="0"
     inkscape:pageshadow="2"
     inkscape:window-width="2560"
     inkscape:window-height="1370"
     id="namedview1629"
     showgrid="false"
     inkscape:zoom="8.5027004"
     inkscape:cx="52.301553"
     inkscape:cy="55.554123"
     inkscape:window-x="0"
     inkscape:window-y="42"
     inkscape:window-maximized="1"
     inkscape:current-layer="svg1627" />
  <path
     fill="param(fill) #FFFFFF"
     fill-opacity="param(fill-opacity) 1"
     d="m 25.878906,-0.37695312 h 49.533 c 13.351,0 24.172,10.82200012 24.172,24.17200012 v 49.532 c 0,13.35 -10.821,24.171 -24.172,24.171 h -49.533 c -13.349,0 -24.171,-10.821 -24.171,-24.171 v -49.532 c 0,-13.35 10.823,-24.17200012 24.171,-24.17200012 z"
     id="path1621"
     inkscape:connector-curvature="0"
     style="stroke:#ffffff;stroke-width:0.26499999" />
  <path
     fill="param(outline) #000#"
     d="M 25.878906 -0.37695312 C 11.370906 -0.37695312 -0.37695312 11.371906 -0.37695312 25.878906 L -0.37695312 73.332031 C -0.37695312 87.840031 11.370906 99.589844 25.878906 99.589844 L 73.335938 99.589844 C 87.845938 99.589844 99.591797 87.840031 99.591797 73.332031 L 99.591797 25.878906 C 99.591797 11.370906 87.845938 -0.37695312 73.335938 -0.37695312 L 25.878906 -0.37695312 z M 25.878906 5.8789062 L 73.335938 5.8789062 C 83.375937 5.8789062 93.333984 15.650906 93.333984 25.878906 L 93.333984 73.332031 C 93.333984 83.932031 83.005937 93.341797 73.335938 93.341797 L 25.878906 93.341797 C 16.023906 93.341797 5.8691406 83.932031 5.8691406 73.332031 L 5.8691406 25.878906 C 5.8691406 14.721906 15.650906 5.8789063 25.878906 5.8789062 z M 14.447266 45.556641 L 14.447266 49.494141 C 14.447266 61.937141 21.162203 73.45225 32.033203 79.65625 A 35.506 35.506 0 0 0 67.175781 79.65625 C 78.046781 73.45325 84.779297 61.937141 84.779297 49.494141 L 84.779297 45.556641 L 14.447266 45.556641 z M 23.380859 53.427734 L 75.847656 53.427734 C 74.589656 61.391734 70.492484 68.6945 63.271484 72.8125 A 27.609 27.609 0 0 1 35.939453 72.8125 C 28.722453 68.6935 24.638859 61.391734 23.380859 53.427734 z "
     id="path1623" />
</svg>
