<?xml version="1.0" encoding="UTF-8" standalone="no"?>
<svg
   xmlns:osb="http://www.openswatchbook.org/uri/2009/osb"
   xmlns:dc="http://purl.org/dc/elements/1.1/"
   xmlns:cc="http://creativecommons.org/ns#"
   xmlns:rdf="http://www.w3.org/1999/02/22-rdf-syntax-ns#"
   xmlns:svg="http://www.w3.org/2000/svg"
   xmlns="http://www.w3.org/2000/svg"
   xmlns:xlink="http://www.w3.org/1999/xlink"
   xmlns:sodipodi="http://sodipodi.sourceforge.net/DTD/sodipodi-0.dtd"
   xmlns:inkscape="http://www.inkscape.org/namespaces/inkscape"
   width="99.213"
   height="99.213"
   version="1.1"
   id="svg2232"
   sodipodi:docname="ASS_DO.min.svg"
   inkscape:version="0.92.3 (2405546, 2018-03-11)">
<metadata
     id="metadata829">
    <rdf:RDF>
      <cc:Work
         rdf:about="">
        <dc:format>image/svg+xml</dc:format>
        <dc:type
           rdf:resource="http://purl.org/dc/dcmitype/StillImage" />
        <dc:title></dc:title>
        <cc:license
           rdf:resource="http://creativecommons.org/licenses/by-sa/4.0/" />
        <dc:creator>
          <cc:Agent>
            <dc:title>ASTEE</dc:title>
          </cc:Agent>
        </dc:creator>
        <dc:contributor>
          <cc:Agent>
            <dc:title>ASTEE; Le Grand Lyon</dc:title>
          </cc:Agent>
        </dc:contributor>
        <dc:language>FR</dc:language>
        <dc:subject>
          <rdf:Bag>
            <rdf:li>eau</rdf:li>
            <rdf:li>potable</rdf:li>
            <rdf:li>assainissement</rdf:li>
          </rdf:Bag>
        </dc:subject>
        <dc:date></dc:date>
      </cc:Work>
      <cc:License
         rdf:about="http://creativecommons.org/licenses/by-sa/4.0/">
        <cc:permits
           rdf:resource="http://creativecommons.org/ns#Reproduction" />
        <cc:permits
           rdf:resource="http://creativecommons.org/ns#Distribution" />
        <cc:requires
           rdf:resource="http://creativecommons.org/ns#Notice" />
        <cc:requires
           rdf:resource="http://creativecommons.org/ns#Attribution" />
        <cc:permits
           rdf:resource="http://creativecommons.org/ns#DerivativeWorks" />
        <cc:requires
           rdf:resource="http://creativecommons.org/ns#ShareAlike" />
      </cc:License>
    </rdf:RDF>
  </metadata>
    <sodipodi:namedview
     pagecolor="#ffffff"
     bordercolor="#666666"
     borderopacity="1"
     objecttolerance="10"
     gridtolerance="10"
     guidetolerance="10"
     inkscape:pageopacity="0"
     inkscape:pageshadow="2"
     inkscape:window-width="2560"
     inkscape:window-height="1370"
     id="namedview2234"
     showgrid="false"
     inkscape:zoom="11.802575"
     inkscape:cx="61.255896"
     inkscape:cy="40.973113"
     inkscape:window-x="0"
     inkscape:window-y="42"
     inkscape:window-maximized="1"
     inkscape:current-layer="svg2232" />
  <defs
     id="defs2222">
    <linearGradient
       id="prefix__a"
       osb:paint="solid">
      <stop
         offset="0"
         id="stop2218" />
    </linearGradient>
    <linearGradient
       xlink:href="#prefix__a"
       id="prefix__b"
       gradientUnits="userSpaceOnUse"
       gradientTransform="matrix(.55047 .55912 -.41026 .4662 -45.492 -59.415)"
       x1="35.705"
       y1="50.307"
       x2="78.402"
       y2="50.307" />
  </defs>
  <path
     d="M58.752 7.72c-5.088-5.066-13.41-5.076-18.498-.009L7.052 40.761c-5.088 5.067-5.079 13.346.01 18.413l33.192 33.038c5.088 5.067 13.398 5.067 18.49 0l33.198-33.049c5.092-5.067 5.092-13.337 0-18.402zm-5.827 42.183z"
     id="path2224"
     style="stroke:#4b3912;fill:#e28282;fill-opacity:1;stroke-opacity:1"
     stroke-width="6.694"
     stroke="param(outline)#000009"
     fill="param(fill)#fff"
     fill-opacity="param(fill-opacity) 1"  />
  <g >   
    <path
        d="M-36.477-27.359c.407-.484 1.108-.121 1.36.458L-22.98 7.407c.221.488-.002.52-.34.386L-55.938-3.243c-.598-.198-1.028-.88-.599-1.322z"
        transform="matrix(.58165 -.01014 .01098 .5375 91.821 49.13)"
        id="path2226"
        stroke="none"
        fill="param(outline) #000"
       />
    <path
        fill="param(outline) #000"
        stroke="none"
        d="M40.641 33.724c5.325-1.808 10.547-1.652 14.73-.78 2.048.428 3.65.948 6.117 2.086 1.657.765 4.556 2.029 5.218 3.717.886 2.252-.2 4.152-1.68 4.611-1.65.514-3.444-1.236-4.905-1.965-4.768-2.379-10.32-3.514-16.805-1.745-6.165 1.68-10.997 5.795-14.078 10.257-1.192 1.729-1.812 3.86-3.224 4.352-1.686.587-3.291-.665-3.7-2.301-.543-2.165 1.545-4.786 2.42-6.083 2.49-3.685 5.178-6.425 9.142-8.993 1.99-1.291 4.139-2.265 6.765-3.156z"
        id="path2228" />
    <path
        d="M49.606 16.578l.251 66.082v0"
        id="path2230"
        stroke-width="5.669"
        stroke="param(outline) #000"
        fill="param(outline) #000" />
    </g>
</svg>
