<?xml version="1.0" encoding="UTF-8" standalone="no"?>
<svg
   xmlns:dc="http://purl.org/dc/elements/1.1/"
   xmlns:cc="http://creativecommons.org/ns#"
   xmlns:rdf="http://www.w3.org/1999/02/22-rdf-syntax-ns#"
   xmlns:svg="http://www.w3.org/2000/svg"
   xmlns="http://www.w3.org/2000/svg"
   xmlns:sodipodi="http://sodipodi.sourceforge.net/DTD/sodipodi-0.dtd"
   xmlns:inkscape="http://www.inkscape.org/namespaces/inkscape"
   width="99.213"
   height="99.213"
   version="1.1"
   id="svg2517"
   sodipodi:docname="ASS_BASSINE_M.min.svg"
   inkscape:version="0.92.3 (2405546, 2018-03-11)">
<metadata
     id="metadata829">
    <rdf:RDF>
      <cc:Work
         rdf:about="">
        <dc:format>image/svg+xml</dc:format>
        <dc:type
           rdf:resource="http://purl.org/dc/dcmitype/StillImage" />
        <dc:title></dc:title>
        <cc:license
           rdf:resource="http://creativecommons.org/licenses/by-sa/4.0/" />
        <dc:creator>
          <cc:Agent>
            <dc:title>ASTEE</dc:title>
          </cc:Agent>
        </dc:creator>
        <dc:contributor>
          <cc:Agent>
            <dc:title>ASTEE; Le Grand Lyon</dc:title>
          </cc:Agent>
        </dc:contributor>
        <dc:language>FR</dc:language>
        <dc:subject>
          <rdf:Bag>
            <rdf:li>eau</rdf:li>
            <rdf:li>potable</rdf:li>
            <rdf:li>assainissement</rdf:li>
          </rdf:Bag>
        </dc:subject>
        <dc:date></dc:date>
      </cc:Work>
      <cc:License
         rdf:about="http://creativecommons.org/licenses/by-sa/4.0/">
        <cc:permits
           rdf:resource="http://creativecommons.org/ns#Reproduction" />
        <cc:permits
           rdf:resource="http://creativecommons.org/ns#Distribution" />
        <cc:requires
           rdf:resource="http://creativecommons.org/ns#Notice" />
        <cc:requires
           rdf:resource="http://creativecommons.org/ns#Attribution" />
        <cc:permits
           rdf:resource="http://creativecommons.org/ns#DerivativeWorks" />
        <cc:requires
           rdf:resource="http://creativecommons.org/ns#ShareAlike" />
      </cc:License>
    </rdf:RDF>
  </metadata>
    <defs
     id="defs2521" />
  <sodipodi:namedview
     pagecolor="#ffffff"
     bordercolor="#666666"
     borderopacity="1"
     objecttolerance="10"
     gridtolerance="10"
     guidetolerance="10"
     inkscape:pageopacity="0"
     inkscape:pageshadow="2"
     inkscape:window-width="2560"
     inkscape:window-height="1370"
     id="namedview2519"
     showgrid="false"
     inkscape:zoom="6.0123171"
     inkscape:cx="-16.012147"
     inkscape:cy="48.403947"
     inkscape:window-x="0"
     inkscape:window-y="42"
     inkscape:window-maximized="1"
     inkscape:current-layer="svg2517" />
  <path
     d="m 24.699762,2.1219109 h 48.868807 c 13.172932,0 23.849405,10.5661401 23.849405,23.6019521 v 48.363778 c 0,13.034826 -10.676473,23.602938 -23.849405,23.602938 H 24.699762 c -13.171936,0 -23.84840902,-10.568112 -23.84840902,-23.602938 V 25.723863 C 0.85334618,12.688051 11.529819,2.1219109 24.699762,2.1219109 Z"
     id="path2511"
     inkscape:connector-curvature="0"
     style="fill:param(fill) #fff;fill-opacity:param(fill-opacity) 1;stroke:#ffffff;stroke-width:0.26272827" />
  <path
     fill="param(outline) #000"
     d="m 26.279416,0.12714414 c -14.364,0 -25.99414122,11.62913986 -25.99414122,25.99414186 v 46.980468 c 0,14.364 11.62913922,25.992185 25.99414122,25.992185 h 46.980468 c 14.363,0 25.992192,-11.628185 25.992192,-25.992185 V 26.121286 c 0,-14.364 -11.629192,-25.99414186 -25.992192,-25.99414186 z m 0,4.12304686 H 73.259884 A 21.779,21.779 0 0 1 95.129025,26.121286 V 73.099801 A 21.781,21.781 0 0 1 73.259884,94.972848 H 26.279416 A 21.78,21.78 0 0 1 4.4102749,73.099801 V 26.121286 A 21.776,21.776 0 0 1 26.279416,4.250191 Z M 12.234494,51.716989 c 0,13.326 7.155578,25.638734 18.767578,32.302734 a 37.75,37.75 0 0 0 37.533203,0 c 11.615,-6.664 18.765625,-18.976734 18.765625,-32.302734 z"
     id="path2513"
     inkscape:connector-curvature="0" />
</svg>
