<svg xmlns="http://www.w3.org/2000/svg" width="99.213" height="99.213">
<metadata
     id="metadata829">
    <rdf:RDF>
      <cc:Work
         rdf:about="">
        <dc:format>image/svg+xml</dc:format>
        <dc:type
           rdf:resource="http://purl.org/dc/dcmitype/StillImage" />
        <dc:title></dc:title>
        <cc:license
           rdf:resource="http://creativecommons.org/licenses/by-sa/4.0/" />
        <dc:creator>
          <cc:Agent>
            <dc:title>ASTEE</dc:title>
          </cc:Agent>
        </dc:creator>
        <dc:contributor>
          <cc:Agent>
            <dc:title>ASTEE; Le Grand Lyon</dc:title>
          </cc:Agent>
        </dc:contributor>
        <dc:language>FR</dc:language>
        <dc:subject>
          <rdf:Bag>
            <rdf:li>eau</rdf:li>
            <rdf:li>potable</rdf:li>
            <rdf:li>assainissement</rdf:li>
          </rdf:Bag>
        </dc:subject>
        <dc:date></dc:date>
      </cc:Work>
      <cc:License
         rdf:about="http://creativecommons.org/licenses/by-sa/4.0/">
        <cc:permits
           rdf:resource="http://creativecommons.org/ns#Reproduction" />
        <cc:permits
           rdf:resource="http://creativecommons.org/ns#Distribution" />
        <cc:requires
           rdf:resource="http://creativecommons.org/ns#Notice" />
        <cc:requires
           rdf:resource="http://creativecommons.org/ns#Attribution" />
        <cc:permits
           rdf:resource="http://creativecommons.org/ns#DerivativeWorks" />
        <cc:requires
           rdf:resource="http://creativecommons.org/ns#ShareAlike" />
      </cc:License>
    </rdf:RDF>
  </metadata>
  
    <path fill="param(fill) #FFFFFF" fill-opacity="param(fill-opacity) 1" d="M25.026.708h49.328c13.293 0 24.068 10.777 24.068 24.071v49.326c0 13.293-10.775 24.069-24.068 24.069H25.026c-13.294 0-24.07-10.776-24.07-24.069V24.779C.957 11.485 11.732.708 25.026.708z"/>
    <path fill="param(outline) #000" d="M26.062-.337C11.614-.337-.085 11.362-.085 25.81v47.256c0 14.449 11.699 26.146 26.147 26.146H73.32c14.447 0 26.146-11.697 26.146-26.146V25.81C99.466 11.361 87.77-.337 73.32-.337H26.062zm0 6.221H73.32c12.22 0 19.923 7.702 19.923 19.925v47.255c0 12.223-7.703 19.928-19.923 19.928H26.062c-12.222 0-19.926-7.705-19.926-19.928V25.809c0-12.222 7.703-19.925 19.926-19.925z"/>
    <circle fill="param(outline) #000" cx="50.061" cy="364.217" r="12.298" transform="translate(-.001 -283.345)"/>
</svg>
