<?xml version="1.0" encoding="UTF-8" standalone="no"?>
<svg
   xmlns:dc="http://purl.org/dc/elements/1.1/"
   xmlns:cc="http://creativecommons.org/ns#"
   xmlns:rdf="http://www.w3.org/1999/02/22-rdf-syntax-ns#"
   xmlns:svg="http://www.w3.org/2000/svg"
   xmlns="http://www.w3.org/2000/svg"
   xmlns:sodipodi="http://sodipodi.sourceforge.net/DTD/sodipodi-0.dtd"
   xmlns:inkscape="http://www.inkscape.org/namespaces/inkscape"
   width="99.213"
   height="99.213"
   version="1.1"
   id="svg2391"
   sodipodi:docname="ASS_BASSINE.min.svg"
   inkscape:version="0.92.3 (2405546, 2018-03-11)">
<metadata
     id="metadata829">
    <rdf:RDF>
      <cc:Work
         rdf:about="">
        <dc:format>image/svg+xml</dc:format>
        <dc:type
           rdf:resource="http://purl.org/dc/dcmitype/StillImage" />
        <dc:title></dc:title>
        <cc:license
           rdf:resource="http://creativecommons.org/licenses/by-sa/4.0/" />
        <dc:creator>
          <cc:Agent>
            <dc:title>ASTEE</dc:title>
          </cc:Agent>
        </dc:creator>
        <dc:contributor>
          <cc:Agent>
            <dc:title>ASTEE; Le Grand Lyon</dc:title>
          </cc:Agent>
        </dc:contributor>
        <dc:language>FR</dc:language>
        <dc:subject>
          <rdf:Bag>
            <rdf:li>eau</rdf:li>
            <rdf:li>potable</rdf:li>
            <rdf:li>assainissement</rdf:li>
          </rdf:Bag>
        </dc:subject>
        <dc:date></dc:date>
      </cc:Work>
      <cc:License
         rdf:about="http://creativecommons.org/licenses/by-sa/4.0/">
        <cc:permits
           rdf:resource="http://creativecommons.org/ns#Reproduction" />
        <cc:permits
           rdf:resource="http://creativecommons.org/ns#Distribution" />
        <cc:requires
           rdf:resource="http://creativecommons.org/ns#Notice" />
        <cc:requires
           rdf:resource="http://creativecommons.org/ns#Attribution" />
        <cc:permits
           rdf:resource="http://creativecommons.org/ns#DerivativeWorks" />
        <cc:requires
           rdf:resource="http://creativecommons.org/ns#ShareAlike" />
      </cc:License>
    </rdf:RDF>
  </metadata>
    <defs
     id="defs2395" />
  <sodipodi:namedview
     pagecolor="#ffffff"
     bordercolor="#666666"
     borderopacity="1"
     objecttolerance="10"
     gridtolerance="10"
     guidetolerance="10"
     inkscape:pageopacity="0"
     inkscape:pageshadow="2"
     inkscape:window-width="2560"
     inkscape:window-height="1370"
     id="namedview2393"
     showgrid="false"
     inkscape:zoom="8.5027004"
     inkscape:cx="100.58836"
     inkscape:cy="32.671744"
     inkscape:window-x="0"
     inkscape:window-y="42"
     inkscape:window-maximized="1"
     inkscape:current-layer="svg2391" />
  <path
     fill="param(fill) #FFFFFF"
     fill-opacity="param(fill-opacity) 1"
     d="m 24.764465,0.83609536 h 48.914 c 13.182,0 23.868,10.68699964 23.868,23.86999964 v 48.914003 c 0,13.182 -10.688,23.868 -23.868,23.868 h -48.914 c -13.183,0 -23.86900034,-10.688 -23.86900034,-23.868 V 24.706095 c 0,-13.183 10.68700034,-23.86999964 23.86900034,-23.86999964 z"
     id="path2385"
     inkscape:connector-curvature="0"
     style="stroke:#ffffff;stroke-width:0.26499999;fill:#ff5e5e;fill-opacity:1" />
  <path
     fill="param(outline) #000"
     d="M 26.175781 0.24804688 C 11.848781 0.24804688 0.24804688 11.848781 0.24804688 26.175781 L 0.24804688 73.037109 C 0.24804688 87.364109 11.849781 98.964844 26.175781 98.964844 L 73.037109 98.964844 C 87.363109 98.964844 98.964844 87.364109 98.964844 73.037109 L 98.964844 26.175781 C 98.964844 11.848781 87.363109 0.24804688 73.037109 0.24804688 L 26.175781 0.24804688 z M 26.175781 6.4257812 L 73.037109 6.4257812 C 82.953109 6.4257812 92.787109 16.075781 92.787109 26.175781 L 92.787109 73.037109 C 92.787109 83.504109 82.585109 92.796875 73.037109 92.796875 L 26.175781 92.796875 C 16.443781 92.796875 6.4179687 83.504109 6.4179688 73.037109 L 6.4179688 26.175781 C 6.4179688 15.156781 16.075781 6.4257813 26.175781 6.4257812 z M 15.013672 45.345703 A 34.593 34.593 0 0 0 84.197266 45.345703 L 15.013672 45.345703 z "
     id="path2387" />
</svg>
