<svg xmlns="http://www.w3.org/2000/svg" width="792.031" height="722.305">
<metadata
     id="metadata829">
    <rdf:RDF>
      <cc:Work
         rdf:about="">
        <dc:format>image/svg+xml</dc:format>
        <dc:type
           rdf:resource="http://purl.org/dc/dcmitype/StillImage" />
        <dc:title></dc:title>
        <cc:license
           rdf:resource="http://creativecommons.org/licenses/by-sa/4.0/" />
        <dc:creator>
          <cc:Agent>
            <dc:title>ASTEE</dc:title>
          </cc:Agent>
        </dc:creator>
        <dc:contributor>
          <cc:Agent>
            <dc:title>ASTEE; Le Grand Lyon</dc:title>
          </cc:Agent>
        </dc:contributor>
        <dc:language>FR</dc:language>
        <dc:subject>
          <rdf:Bag>
            <rdf:li>eau</rdf:li>
            <rdf:li>potable</rdf:li>
            <rdf:li>assainissement</rdf:li>
          </rdf:Bag>
        </dc:subject>
        <dc:date></dc:date>
      </cc:Work>
      <cc:License
         rdf:about="http://creativecommons.org/licenses/by-sa/4.0/">
        <cc:permits
           rdf:resource="http://creativecommons.org/ns#Reproduction" />
        <cc:permits
           rdf:resource="http://creativecommons.org/ns#Distribution" />
        <cc:requires
           rdf:resource="http://creativecommons.org/ns#Notice" />
        <cc:requires
           rdf:resource="http://creativecommons.org/ns#Attribution" />
        <cc:permits
           rdf:resource="http://creativecommons.org/ns#DerivativeWorks" />
        <cc:requires
           rdf:resource="http://creativecommons.org/ns#ShareAlike" />
      </cc:License>
    </rdf:RDF>
  </metadata>
  
<defs><pattern patternTransform="matrix(2.16 0 0 2.16 119.74 -21.796)" patternUnits="userSpaceOnUse" x="0" y="0" width="109.125" height="25.803" id="prefix__a"><path d="M109.125 6.712c-6.175 0-10.819 1.305-13.641 2.128-2.82.823-7.466 2.128-13.64 2.128S71.024 9.663 68.203 8.84c-2.821-.824-7.466-2.128-13.641-2.128-6.174 0-10.819 1.305-13.64 2.128-2.821.823-7.467 2.128-13.641 2.128s-10.82-1.305-13.64-2.128C10.819 8.017 6.174 6.712 0 6.712M109.125-1.89c-6.175 0-10.819 1.305-13.641 2.128-2.82.823-7.466 2.128-13.64 2.128S71.024 1.061 68.203.238C65.382-.585 60.737-1.89 54.562-1.89c-6.174 0-10.819 1.305-13.64 2.128-2.821.823-7.467 2.128-13.641 2.128S16.461 1.061 13.641.238C10.819-.585 6.174-1.89 0-1.89M109.125 23.915c-6.175 0-10.819 1.305-13.641 2.128-2.82.823-7.466 2.128-13.64 2.128s-10.82-1.305-13.641-2.128c-2.821-.824-7.466-2.128-13.641-2.128-6.174 0-10.819 1.305-13.64 2.128-2.821.823-7.467 2.128-13.641 2.128s-10.82-1.305-13.64-2.128C10.819 25.22 6.174 23.915 0 23.915M109.125 15.313c-6.175 0-10.819 1.305-13.641 2.128-2.82.823-7.466 2.128-13.64 2.128s-10.82-1.305-13.641-2.128c-2.821-.823-7.466-2.128-13.641-2.128-6.174 0-10.819 1.305-13.64 2.128-2.821.823-7.467 2.128-13.641 2.128s-10.82-1.305-13.64-2.128C10.819 16.618 6.174 15.313 0 15.313" fill="none" stroke="#2b2b2a" stroke-width="3" stroke-linecap="square"/></pattern>
</defs>
<path d="M151.696 6.816L397.573 495.5 640.335 6.816h-488.64z" fill="param(fill) #000"/>
<path d="M397.574 348.434V704.66M533.132 704.66H258.871" fill="none" stroke="#000" stroke-width="21.65784"/>
</svg>