<?xml version="1.0" encoding="UTF-8" standalone="no"?>
<!-- Created with Inkscape (http://www.inkscape.org/) -->

<svg
   width="100"
   height="100"
   viewBox="0 0 26.458 26.459"
   version="1.1"
   id="svg5"
   xmlns="http://www.w3.org/2000/svg"
   xmlns:svg="http://www.w3.org/2000/svg">
  <defs
     id="defs2" />
  <g
     id="layer1">
    <path
       style="fill:none;stroke:#000000;stroke-width:1.56504"
       d="M 12.884,3.1249 C 2.0795,10.834 2.0795,10.834 2.0795,10.834 l 1.5893,8.883 8.7872,3.681 12.423,-8.96 z"
       id="path994" />
    <rect
       style="fill:#000004;stroke-width:1.56504;stroke-linejoin:round"
       id="rect1215"
       width="0.69014"
       height="2.932"
       x="4.3444"
       y="9.4048"
       transform="rotate(-4.2909)" />
    <rect
       style="fill:#000004;stroke-width:1.56503;stroke-linejoin:round"
       id="rect1215-6"
       width="0.69014"
       height="2.932"
       x="8.2145"
       y="6.9688"
       transform="rotate(-4.2909)" />
    <rect
       style="fill:#000004;stroke-width:1.56503;stroke-linejoin:round"
       id="rect1215-7"
       width="0.69014"
       height="2.932"
       x="9.9914"
       y="5.9372"
       transform="rotate(-4.2909)" />
    <rect
       style="fill:#000004;stroke-width:1.56503;stroke-linejoin:round"
       id="rect1215-5"
       width="0.69014"
       height="2.932"
       x="11.726"
       y="4.7475"
       transform="rotate(-4.2909)" />
    <rect
       style="fill:#000004;stroke-width:1.56503;stroke-linejoin:round"
       id="rect1215-35"
       width="0.69014"
       height="2.932"
       x="2.6916"
       y="10.288"
       transform="rotate(-4.2909)" />
    <rect
       style="fill:#000004;stroke-width:1.56503;stroke-linejoin:round"
       id="rect1215-62"
       width="0.69014"
       height="2.932"
       x="10.032"
       y="-13.539"
       transform="rotate(74.042)" />
    <rect
       style="fill:#000004;stroke-width:1.56501;stroke-linejoin:round"
       id="rect1215-62-9"
       width="0.69013"
       height="2.932"
       x="11.55"
       y="-14.156"
       transform="rotate(74.042)" />
    <rect
       style="fill:#000004;stroke-width:1.56501;stroke-linejoin:round"
       id="rect1215-62-1"
       width="0.69013"
       height="2.932"
       x="13.208"
       y="-15.103"
       transform="rotate(74.042)" />
    <rect
       style="fill:#000004;stroke-width:1.56501;stroke-linejoin:round"
       id="rect1215-62-2"
       width="0.69013"
       height="2.932"
       x="14.842"
       y="-16.011"
       transform="rotate(74.042)" />
    <rect
       style="fill:#000004;stroke-width:1.56501;stroke-linejoin:round"
       id="rect1215-62-7"
       width="0.69013"
       height="2.932"
       x="16.643"
       y="-17.08"
       transform="rotate(74.042)" />
    <rect
       style="fill:#000004;stroke-width:1.56501;stroke-linejoin:round"
       id="rect1215-62-0"
       width="0.69013"
       height="2.932"
       x="18.162"
       y="-17.901"
       transform="rotate(74.042)" />
    <rect
       style="fill:#000004;stroke-width:1.56501;stroke-linejoin:round"
       id="rect1215-62-93"
       width="0.69013"
       height="2.932"
       x="22.202"
       y="-15.135"
       transform="matrix(0.99671,0.08109,0.08109,-0.99671,0,0)" />
    <rect
       style="fill:#000004;stroke-width:1.56501;stroke-linejoin:round"
       id="rect1215-62-93-6"
       width="0.69013"
       height="2.932"
       x="20.471"
       y="-16.285"
       transform="matrix(0.99671,0.08109,0.08109,-0.99671,0,0)" />
    <rect
       style="fill:#000004;stroke-width:1.56501;stroke-linejoin:round"
       id="rect1215-62-93-0"
       width="0.69013"
       height="2.932"
       x="18.714"
       y="-17.282"
       transform="matrix(0.99671,0.08109,0.08109,-0.99671,0,0)" />
    <rect
       style="fill:#000004;stroke-width:1.56501;stroke-linejoin:round"
       id="rect1215-62-93-62"
       width="0.69013"
       height="2.932"
       x="17.028"
       y="-19.053"
       transform="matrix(0.99671,0.08109,0.08109,-0.99671,0,0)" />
    <rect
       style="fill:#000004;stroke-width:1.56501;stroke-linejoin:round"
       id="rect1215-62-93-61"
       width="0.69013"
       height="2.932"
       x="15.412"
       y="-20.244"
       transform="matrix(0.99671,0.08109,0.08109,-0.99671,0,0)" />
    <rect
       style="fill:#000004;stroke-width:1.56501;stroke-linejoin:round"
       id="rect1215-62-93-8"
       width="0.69013"
       height="2.932"
       x="14.08"
       y="-21.412"
       transform="matrix(0.99671,0.08109,0.08109,-0.99671,0,0)" />
    <rect
       style="fill:#000004;stroke-width:1.56501;stroke-linejoin:round"
       id="rect1215-62-93-8-7"
       width="0.69013"
       height="2.932"
       x="23.301"
       y="0.77007"
       transform="matrix(0.37029,0.92892,0.92892,-0.37029,0,0)" />
    <rect
       style="fill:#000004;stroke-width:1.56501;stroke-linejoin:round"
       id="rect1215-62-93-8-7-9"
       width="0.69013"
       height="2.932"
       x="21.897"
       y="-0.72948"
       transform="matrix(0.37029,0.92892,0.92892,-0.37029,0,0)" />
    <rect
       style="fill:#000004;stroke-width:1.56501;stroke-linejoin:round"
       id="rect1215-62-93-8-7-2"
       width="0.69013"
       height="2.932"
       x="20.257"
       y="-2.2419"
       transform="matrix(0.37029,0.92892,0.92892,-0.37029,0,0)" />
    <rect
       style="fill:#000004;stroke-width:1.56498;stroke-linejoin:round"
       id="rect1215-62-93-8-7-0-2"
       width="0.69011"
       height="2.9319"
       x="11.293"
       y="10.457"
       transform="matrix(-0.50632,0.86234,0.86234,0.50632,0,0)" />
    <rect
       style="fill:#000004;stroke-width:1.56498;stroke-linejoin:round"
       id="rect1215-62-93-8-7-0-2-5"
       width="0.69012"
       height="2.9319"
       x="12.9"
       y="11.867"
       transform="matrix(-0.50632,0.86235,0.86235,0.50632,0,0)" />
    <rect
       style="fill:#000004;stroke-width:1.56498;stroke-linejoin:round"
       id="rect1215-62-93-8-7-0-2-9"
       width="0.69012"
       height="2.9319"
       x="9.7627"
       y="9.3055"
       transform="matrix(-0.50632,0.86235,0.86235,0.50632,0,0)" />
    <rect
       style="fill:#000004;stroke-width:1.56502;stroke-linejoin:round"
       id="rect1215-3"
       width="0.69013"
       height="2.932"
       x="6.4146"
       y="7.83"
       transform="rotate(-4.2038)" />
  </g>
</svg>
