<?xml version="1.0" encoding="UTF-8" standalone="no"?>
<svg
   xmlns:dc="http://purl.org/dc/elements/1.1/"
   xmlns:cc="http://creativecommons.org/ns#"
   xmlns:rdf="http://www.w3.org/1999/02/22-rdf-syntax-ns#"
   xmlns:svg="http://www.w3.org/2000/svg"
   xmlns="http://www.w3.org/2000/svg"
   xmlns:sodipodi="http://sodipodi.sourceforge.net/DTD/sodipodi-0.dtd"
   xmlns:inkscape="http://www.inkscape.org/namespaces/inkscape"
   width="99.213"
   height="99.213"
   version="1.1"
   id="svg8"
   sodipodi:docname="AEP_USINE_TRAITEMENT.min.svg"
   inkscape:version="0.92.3 (2405546, 2018-03-11)">
<metadata
     id="metadata829">
    <rdf:RDF>
      <cc:Work
         rdf:about="">
        <dc:format>image/svg+xml</dc:format>
        <dc:type
           rdf:resource="http://purl.org/dc/dcmitype/StillImage" />
        <dc:title></dc:title>
        <cc:license
           rdf:resource="http://creativecommons.org/licenses/by-sa/4.0/" />
        <dc:creator>
          <cc:Agent>
            <dc:title>ASTEE</dc:title>
          </cc:Agent>
        </dc:creator>
        <dc:contributor>
          <cc:Agent>
            <dc:title>ASTEE; Le Grand Lyon</dc:title>
          </cc:Agent>
        </dc:contributor>
        <dc:language>FR</dc:language>
        <dc:subject>
          <rdf:Bag>
            <rdf:li>eau</rdf:li>
            <rdf:li>potable</rdf:li>
            <rdf:li>assainissement</rdf:li>
          </rdf:Bag>
        </dc:subject>
        <dc:date></dc:date>
      </cc:Work>
      <cc:License
         rdf:about="http://creativecommons.org/licenses/by-sa/4.0/">
        <cc:permits
           rdf:resource="http://creativecommons.org/ns#Reproduction" />
        <cc:permits
           rdf:resource="http://creativecommons.org/ns#Distribution" />
        <cc:requires
           rdf:resource="http://creativecommons.org/ns#Notice" />
        <cc:requires
           rdf:resource="http://creativecommons.org/ns#Attribution" />
        <cc:permits
           rdf:resource="http://creativecommons.org/ns#DerivativeWorks" />
        <cc:requires
           rdf:resource="http://creativecommons.org/ns#ShareAlike" />
      </cc:License>
    </rdf:RDF>
  </metadata>
    <defs
     id="defs12" />
  <sodipodi:namedview
     pagecolor="#ffffff"
     bordercolor="#666666"
     borderopacity="1"
     objecttolerance="10"
     gridtolerance="10"
     guidetolerance="10"
     inkscape:pageopacity="0"
     inkscape:pageshadow="2"
     inkscape:window-width="1546"
     inkscape:window-height="1115"
     id="namedview10"
     showgrid="false"
     inkscape:zoom="6.7280378"
     inkscape:cx="30.408875"
     inkscape:cy="49.712439"
     inkscape:window-x="0"
     inkscape:window-y="42"
     inkscape:window-maximized="0"
     inkscape:current-layer="layer1" />
  <g
     inkscape:groupmode="layer"
     id="layer2"
     inkscape:label="fond" />
  <path
     fill="param(fill) #FFFFFF"
     fill-opacity="param(fill-opacity) 1"
     stroke="#FFF"
     stroke-width=".265"
     d="M24.943.877h49.328c13.293 0 24.068 10.777 24.068 24.071v49.326c0 13.293-10.775 24.068-24.068 24.068H24.943c-13.294 0-24.07-10.775-24.07-24.068V24.948C.874 11.654 11.649.877 24.943.877z"
     id="path2"
     style="stroke:none;stroke-opacity:1;fill:#d8d2f4;fill-opacity:1" />
  <path
     d="M25.979-.168C11.531-.168-.168 11.531-.168 25.979v47.256c0 14.449 11.699 26.146 26.147 26.146h47.258c14.447 0 26.146-11.696 26.146-26.146V25.979c0-14.449-11.696-26.147-26.146-26.147H25.979zm0 6.221h47.258c12.22 0 19.923 7.702 19.923 19.925v47.255c0 12.223-7.703 19.928-19.923 19.928H25.979c-12.222 0-19.926-7.705-19.926-19.928V25.978c0-12.222 7.703-19.925 19.926-19.925z"
     id="path4"
     style="fill:param(outline) #000;stroke:none;stroke-opacity:1;stroke-width:1.3;stroke-miterlimit:4;stroke-dasharray:none;fill-opacity:1" />
  <g
     inkscape:groupmode="layer"
     id="layer1"
     inkscape:label="usine"
     style="display:inline">
    <path
       inkscape:connector-curvature="0"
       d="m 13.554,36.947 v 38.294 l 0.527,0.965 a 5.573,5.573 0 0 0 2.604,2.365 c 0.654,0.29 2.712,0.312 32.821,0.312 h 32.131 l 0.945,-0.437 c 1.186,-0.53 2.26,-1.658 2.715,-2.86 0.328,-0.855 0.344,-1.748 0.344,-25.958 V 24.559 l -0.38,-0.51 c -0.51,-0.69 -1.24,-1.018 -1.985,-0.892 -0.438,0.092 -2.512,1.803 -8.393,6.937 l -7.808,6.844 -0.094,-6.408 -0.088,-6.39 -0.51,-0.417 c -0.675,-0.583 -1.586,-0.746 -2.24,-0.383 -0.293,0.145 -3.935,3.258 -8.084,6.9 l -7.556,6.626 -0.09,-6.207 c -0.074,-5.08 -0.147,-6.281 -0.365,-6.627 -0.382,-0.583 -1.383,-1.002 -2.058,-0.875 -0.418,0.073 -2.693,1.967 -8.409,6.955 l -7.826,6.862 -0.21,-12.693 c -0.565,-1.073 -1.13,-1.083 -2.286,-1.083 0.218,-0.803 -13.705,13.75 -13.705,13.75 z m 25.576,21 v 7.007 l -4.679,-0.037 -4.698,-0.053 -0.054,-6.736 c -0.018,-3.696 0,-6.844 0.054,-6.954 0.055,-0.181 1.166,-0.238 4.733,-0.238 h 4.643 v 7.012 h 0.001 z m 18.568,0 v 7.007 H 48.414 V 50.936 h 9.283 v 7.012 z m 18.568,0 v 7.007 H 66.981 V 50.936 h 9.285 v 7.012 z"
       id="path6-3"
       fill="param(outline) #000;" />
  </g>
</svg>
