<svg xmlns="http://www.w3.org/2000/svg" width="99.213" height="99.213">
<metadata
     id="metadata829">
    <rdf:RDF>
      <cc:Work
         rdf:about="">
        <dc:format>image/svg+xml</dc:format>
        <dc:type
           rdf:resource="http://purl.org/dc/dcmitype/StillImage" />
        <dc:title></dc:title>
        <cc:license
           rdf:resource="http://creativecommons.org/licenses/by-sa/4.0/" />
        <dc:creator>
          <cc:Agent>
            <dc:title>ASTEE</dc:title>
          </cc:Agent>
        </dc:creator>
        <dc:contributor>
          <cc:Agent>
            <dc:title>ASTEE; Le Grand Lyon</dc:title>
          </cc:Agent>
        </dc:contributor>
        <dc:language>FR</dc:language>
        <dc:subject>
          <rdf:Bag>
            <rdf:li>eau</rdf:li>
            <rdf:li>potable</rdf:li>
            <rdf:li>assainissement</rdf:li>
          </rdf:Bag>
        </dc:subject>
        <dc:date></dc:date>
      </cc:Work>
      <cc:License
         rdf:about="http://creativecommons.org/licenses/by-sa/4.0/">
        <cc:permits
           rdf:resource="http://creativecommons.org/ns#Reproduction" />
        <cc:permits
           rdf:resource="http://creativecommons.org/ns#Distribution" />
        <cc:requires
           rdf:resource="http://creativecommons.org/ns#Notice" />
        <cc:requires
           rdf:resource="http://creativecommons.org/ns#Attribution" />
        <cc:permits
           rdf:resource="http://creativecommons.org/ns#DerivativeWorks" />
        <cc:requires
           rdf:resource="http://creativecommons.org/ns#ShareAlike" />
      </cc:License>
    </rdf:RDF>
  </metadata>
  
   <path stroke="param(outline) #000000" stroke-width="param(outline-width) 1" stroke-miterlimit="10" d="M60.02 6.162h0c1.269 0 2.292 1.104 2.292 2.466v78.417c0 1.363-1.025 2.47-2.291 2.47h0c-1.27 0-2.297-1.104-2.297-2.47V8.625c.002-1.36 1.03-2.463 2.297-2.463zM39.194 6.162h0c1.269 0 2.294 1.104 2.294 2.466v78.417c0 1.363-1.028 2.47-2.294 2.47h0c-1.266 0-2.293-1.104-2.293-2.47V8.625c0-1.36 1.03-2.463 2.293-2.463z"/>
</svg>
