<?xml version="1.0" encoding="UTF-8" standalone="no"?>
<svg
   xmlns:dc="http://purl.org/dc/elements/1.1/"
   xmlns:cc="http://creativecommons.org/ns#"
   xmlns:rdf="http://www.w3.org/1999/02/22-rdf-syntax-ns#"
   xmlns:svg="http://www.w3.org/2000/svg"
   xmlns="http://www.w3.org/2000/svg"
   xmlns:sodipodi="http://sodipodi.sourceforge.net/DTD/sodipodi-0.dtd"
   xmlns:inkscape="http://www.inkscape.org/namespaces/inkscape"
   width="99.213"
   height="99.213"
   version="1.1"
   id="svg10"
   sodipodi:docname="AEP_RESERVOIR_TOUR.min.svg"
   inkscape:version="0.92.3 (2405546, 2018-03-11)">
<metadata
     id="metadata829">
    <rdf:RDF>
      <cc:Work
         rdf:about="">
        <dc:format>image/svg+xml</dc:format>
        <dc:type
           rdf:resource="http://purl.org/dc/dcmitype/StillImage" />
        <dc:title></dc:title>
        <cc:license
           rdf:resource="http://creativecommons.org/licenses/by-sa/4.0/" />
        <dc:creator>
          <cc:Agent>
            <dc:title>ASTEE</dc:title>
          </cc:Agent>
        </dc:creator>
        <dc:contributor>
          <cc:Agent>
            <dc:title>ASTEE; Le Grand Lyon</dc:title>
          </cc:Agent>
        </dc:contributor>
        <dc:language>FR</dc:language>
        <dc:subject>
          <rdf:Bag>
            <rdf:li>eau</rdf:li>
            <rdf:li>potable</rdf:li>
            <rdf:li>assainissement</rdf:li>
          </rdf:Bag>
        </dc:subject>
        <dc:date></dc:date>
      </cc:Work>
      <cc:License
         rdf:about="http://creativecommons.org/licenses/by-sa/4.0/">
        <cc:permits
           rdf:resource="http://creativecommons.org/ns#Reproduction" />
        <cc:permits
           rdf:resource="http://creativecommons.org/ns#Distribution" />
        <cc:requires
           rdf:resource="http://creativecommons.org/ns#Notice" />
        <cc:requires
           rdf:resource="http://creativecommons.org/ns#Attribution" />
        <cc:permits
           rdf:resource="http://creativecommons.org/ns#DerivativeWorks" />
        <cc:requires
           rdf:resource="http://creativecommons.org/ns#ShareAlike" />
      </cc:License>
    </rdf:RDF>
  </metadata>
    <defs
     id="defs14" />
  <g
     inkscape:groupmode="layer"
     id="layer2"
     inkscape:label="tour">
    <path
       fill="param(outline) #000"
       stroke-width="param(outline-width) 0.1"
       stroke="#000"
       d="M 49.605469 4.2734375 C 33.728469 4.2734375 17.129203 9.9962183 20.783203 20.074219 C 22.492527 24.792645 28.897331 29.317147 35.228516 32.810547 L 27.355469 90.818359 L 27.363281 90.818359 C 27.362038 90.842483 27.355469 90.86644 27.355469 90.890625 C 27.355469 94.535625 41.548016 97.490234 48.916016 97.490234 C 56.284016 97.490234 70.189453 94.537578 70.189453 90.892578 C 70.189453 90.867729 70.182927 90.843143 70.181641 90.818359 L 70.189453 90.818359 L 62.660156 33.34375 C 69.194264 29.801731 76.14459 25.063976 78.267578 20.074219 C 82.597578 9.9012183 65.488469 4.2734375 49.605469 4.2734375 z M 49.523438 6.2246094 C 64.276438 6.2246094 76.234375 10.211812 76.234375 15.132812 C 76.234375 20.052812 63.526438 22.111328 48.773438 22.111328 C 34.020437 22.111328 22.810547 20.052813 22.810547 15.132812 C 22.810547 10.211812 34.770437 6.2246094 49.523438 6.2246094 z "
       id="path2" />
  </g>
  <g
     inkscape:groupmode="layer"
     id="layer1"
     inkscape:label="remplissage"
     style="display:inline">
    <path
       inkscape:connector-curvature="0"
       stroke-miterlimit="8"
       d="m 49.523,6.2240004 c 14.753,0 26.712,3.9879996 26.712,8.9089996 0,4.92 -12.709,6.978 -27.462,6.978 -14.753,0 -25.963,-2.058 -25.963,-6.978 0,-4.921 11.96,-8.9089996 26.713,-8.9089996 z"
       id="path8-5"
       style="fill:param(fill) #fff;fill-opacity:param(fill-opacity) 1;stroke-miterlimit:8" />
  </g>
</svg>
