<svg xmlns="http://www.w3.org/2000/svg" width="99.213" height="202" viewBox="0 -92.5 99.213 202">
<metadata
     id="metadata829">
    <rdf:RDF>
      <cc:Work
         rdf:about="">
        <dc:format>image/svg+xml</dc:format>
        <dc:type
           rdf:resource="http://purl.org/dc/dcmitype/StillImage" />
        <dc:title></dc:title>
        <cc:license
           rdf:resource="http://creativecommons.org/licenses/by-sa/4.0/" />
        <dc:creator>
          <cc:Agent>
            <dc:title>ASTEE</dc:title>
          </cc:Agent>
        </dc:creator>
        <dc:contributor>
          <cc:Agent>
            <dc:title>ASTEE; Le Grand Lyon</dc:title>
          </cc:Agent>
        </dc:contributor>
        <dc:language>FR</dc:language>
        <dc:subject>
          <rdf:Bag>
            <rdf:li>eau</rdf:li>
            <rdf:li>potable</rdf:li>
            <rdf:li>assainissement</rdf:li>
          </rdf:Bag>
        </dc:subject>
        <dc:date></dc:date>
      </cc:Work>
      <cc:License
         rdf:about="http://creativecommons.org/licenses/by-sa/4.0/">
        <cc:permits
           rdf:resource="http://creativecommons.org/ns#Reproduction" />
        <cc:permits
           rdf:resource="http://creativecommons.org/ns#Distribution" />
        <cc:requires
           rdf:resource="http://creativecommons.org/ns#Notice" />
        <cc:requires
           rdf:resource="http://creativecommons.org/ns#Attribution" />
        <cc:permits
           rdf:resource="http://creativecommons.org/ns#DerivativeWorks" />
        <cc:requires
           rdf:resource="http://creativecommons.org/ns#ShareAlike" />
      </cc:License>
    </rdf:RDF>
  </metadata>

  <path fill="param(fill) #FFFFFF" fill-opacity="param(fill-opacity) 1" stroke="param(outline) #010202"
    stroke-width="param(outline-width) 0.8" stroke-linecap="square" stroke-miterlimit="10"
    d="M51.78 5.422h0l-.486.407-.523.285-.577.16-.567.082-.61-.039-.568-.163-.53-.287-.492-.401L2.766-39.201h0l-.406-.49-.284-.528-.163-.568-.04-.609.08-.572.162-.566.285-.53.366-.532L47.39-88.218h0l.529-.366.53-.283.568-.163.569-.083.608.041.577.163.523.285.486.406 44.666 44.662h0l.408.492.282.53.166.566.038.611-.081.57-.16.568-.286.528-.408.49z" />
  <path fill="param(outline) #FFFFFF"
    d="M51.75-61.456l.633.633.577.637.519.69.399.687.404.69.231.748.229.75.112.802v.349l-.057.342-.173.35-.23.285-.228.231-.288.173-.344.114-.347.058h-.344l-.343-.058-.29-.114-.284-.117-.288-.227-.233-.291-.115-.346-.114-.4-.116-.577-.114-.574-.232-.515-.287-.521-.287-.462-.347-.458-.402-.459-.458-.403-.46-.403-.52-.344-.574-.234-.518-.228-.575-.175-.578-.171-.571-.056H44.5l-.918.056-.865.171-.862.292-.804.401-.691.574-.691.632-.63.805-.634.862-.461.922-.402.921-.345.981-.289 1.034-.229 1.15-.172 1.152-.116 1.149v2.529l.116 1.266.172 1.151.229 1.093.289 1.094.345.979.402.976.461.862.575.865.632.747.692.633.747.518.804.401.805.289.922.173.918.057.748-.057.691-.058.691-.115.634-.23.576-.231.515-.288.52-.345.516-.403.46-.458.405-.578.343-.575.347-.631.23-.689.229-.751.174-.745.113-.865.058-.459.117-.402.23-.344.286-.233.287-.174.29-.11.344-.061h.402l.345.115.343.117.293.172.229.228.228.344.173.348.061.344v.405l-.178 1.036-.284 1.035-.292.975-.398.92-.405.809-.517.802-.575.75-.632.69-.692.634-.806.517-.862.46-.921.406-.92.284-.979.233-1.091.111h-1.783l-.747-.057-.636-.054-.69-.118-.631-.172-.577-.227-.631-.234-.573-.23-.519-.345-.52-.345-.517-.345-.517-.403-.463-.46-.403-.517-.456-.517-.406-.517-.631-1.096-.577-1.15-.459-1.211-.403-1.317-.346-1.385-.172-1.438-.172-1.495v-3.162l.172-1.496.23-1.382.288-1.378.461-1.324.517-1.211.575-1.204.69-1.095.404-.575.46-.578.459-.456.46-.521.462-.404.518-.403.516-.344.519-.286.576-.288.574-.23.631-.228.578-.175.63-.114.634-.117.692-.057h.688l.977.057.98.117.919.172.923.288.861.4.803.406.808.519zM59.745-63.526l.233-.113.291-.116h.283l.344-.059.289.059h.289l.229.116.23.113.23.174.174.23.112.23v28.073l-.112.229-.174.174-.23.172-.23.114-.229.12-.289.053h-.633l-.283-.053-.291-.12-.233-.114-.171-.172-.173-.233-.056-.227-.06-.231v-27.554l.06-.288.056-.23.173-.173zM21.031-31.081h57.066L49.678-1.741z" />
</svg>